<?xml version="1.0" encoding="UTF-8"?>
<svg version="1.1" xmlns="http://www.w3.org/2000/svg" width="29" height="29">
<path d="M0 0 C4.43118719 2.13646525 7.2290203 4.37577522 9 9 C9.66198068 14.34488104 9.67332051 18.60348339 7.3125 23.5 C3.24765156 27.89443074 0.53610427 29.18657624 -5.4375 29.4375 C-10.38551157 29.29099091 -13.27283083 28.44763149 -17 25 C-20.60057274 21.03936999 -20.50330882 16.78504341 -20.3515625 11.66015625 C-19.71571586 6.8489167 -17.41661708 4.28783371 -13.9375 1.125 C-9.31242228 -0.64630636 -4.88371757 -0.64542523 0 0 Z " fill="#FEFEFE" transform="translate(20,0)"/>
<path d="M0 0 C-1.29299694 2.88437779 -2.65941363 4.87219421 -5 7 C-3.99554337 9.24071094 -3.12245015 10.87754985 -1.375 12.625 C-0.92125 13.07875 -0.4675 13.5325 0 14 C0 14.66 0 15.32 0 16 C-3.7952131 14.50902342 -5.61042731 12.24299151 -8 9 C-6.68994234 5.06982701 -4.75047804 0 0 0 Z " fill="#5B5B5B" transform="translate(18,6)"/>
<path d="M0 0 C-1.15173355 2.46800047 -2.04783565 4.04783565 -4 6 C-4.99 5.67 -5.98 5.34 -7 5 C-2.25 -0 -2.25 -0 0 0 Z " fill="#636363" transform="translate(18,6)"/>
</svg>
