<?xml version="1.0" encoding="UTF-8"?>
<svg version="1.1" xmlns="http://www.w3.org/2000/svg" width="512" height="512">
<path d="M0 0 C2.93958994 0.00315173 5.87816088 -0.02037543 8.81762695 -0.0456543 C22.190767 -0.09031354 35.08687219 1.11515841 48.27270508 3.31567383 C49.40973877 3.50379639 50.54677246 3.69191895 51.71826172 3.88574219 C94.98573267 11.65772851 136.03563724 31.64472074 169.27270508 60.31567383 C170.0177832 60.94989258 170.76286133 61.58411133 171.53051758 62.23754883 C185.0355034 74.04868897 197.70689251 86.79927611 208.27270508 101.31567383 C209.12919574 102.46562214 209.98596941 103.61535971 210.84301758 104.76489258 C216.88364648 112.95656909 222.24275579 121.47212461 227.27270508 130.31567383 C227.6371875 130.94747559 228.00166992 131.57927734 228.37719727 132.23022461 C249.98305506 169.97849955 259.74968603 212.7450738 259.58520508 255.94067383 C259.58304993 256.95858002 259.58089478 257.97648621 259.57867432 259.02523804 C259.52900362 273.63430906 259.27810699 287.96643236 256.27270508 302.31567383 C255.97468994 303.7779541 255.97468994 303.7779541 255.6706543 305.26977539 C246.61940582 348.53948907 228.23499836 388.74086717 199.27270508 422.31567383 C198.63848633 423.06075195 198.00426758 423.80583008 197.35083008 424.57348633 C185.53968993 438.07847215 172.78910279 450.74986126 158.27270508 461.31567383 C157.12275677 462.17216449 155.97301919 463.02893816 154.82348633 463.88598633 C146.63180981 469.92661523 138.1162543 475.28572454 129.27270508 480.31567383 C128.64090332 480.68015625 128.00910156 481.04463867 127.3581543 481.42016602 C101.27093239 496.35162468 71.93777561 505.82447583 42.27270508 510.31567383 C41.15460449 510.49300049 40.03650391 510.67032715 38.88452148 510.85302734 C28.1231621 512.39733534 17.48329498 512.65547054 6.62084961 512.63134766 C3.67238893 512.62820018 0.72494811 512.65169961 -2.22338867 512.67700195 C-15.61335395 512.72161821 -28.52496226 511.5199244 -41.72729492 509.31567383 C-42.86424805 509.12755127 -44.00120117 508.93942871 -45.17260742 508.74560547 C-88.44004228 500.9743069 -129.49042727 480.98645423 -162.72729492 452.31567383 C-163.47237305 451.68145508 -164.21745117 451.04723633 -164.98510742 450.39379883 C-178.49009325 438.58265868 -191.16148235 425.83207154 -201.72729492 411.31567383 C-202.58378558 410.16572552 -203.44055925 409.01598794 -204.29760742 407.86645508 C-210.33823632 399.67477856 -215.69734563 391.15922305 -220.72729492 382.31567383 C-221.09177734 381.68387207 -221.45625977 381.05207031 -221.83178711 380.40112305 C-242.81185406 343.74618702 -253.13675119 301.64112093 -253.04296875 259.58837891 C-253.03981702 256.64878896 -253.06334418 253.71021803 -253.08862305 250.77075195 C-253.13328229 237.3976119 -251.92781034 224.50150671 -249.72729492 211.31567383 C-249.53917236 210.17864014 -249.3510498 209.04160645 -249.15722656 207.87011719 C-241.38524024 164.60264624 -221.39824801 123.55274167 -192.72729492 90.31567383 C-192.09307617 89.5705957 -191.45885742 88.82551758 -190.80541992 88.05786133 C-178.99427978 74.5528755 -166.24369264 61.8814864 -151.72729492 51.31567383 C-150.57734661 50.45918317 -149.42760904 49.6024095 -148.27807617 48.74536133 C-140.08639966 42.70473243 -131.57084414 37.34562312 -122.72729492 32.31567383 C-122.09549316 31.95119141 -121.46369141 31.58670898 -120.81274414 31.21118164 C-84.15780811 10.23111469 -42.05274202 -0.09378244 0 0 Z M-148.72729492 103.31567383 C-149.50975586 104.04399414 -150.2922168 104.77231445 -151.09838867 105.52270508 C-157.71270245 111.87763401 -163.20769948 119.01897598 -168.72729492 126.31567383 C-169.44014648 127.24508789 -170.15299805 128.17450195 -170.88745117 129.13208008 C-188.85744405 153.10397913 -201.06187106 181.20330749 -207.72729492 210.31567383 C-207.93902344 211.21688965 -208.15075195 212.11810547 -208.36889648 213.04663086 C-214.71949625 241.30227085 -214.43158265 274.17017876 -207.72729492 302.31567383 C-207.37320557 303.83354492 -207.37320557 303.83354492 -207.01196289 305.38208008 C-197.43649373 345.23973895 -177.6472933 378.68379234 -149.72729492 408.31567383 C-148.99897461 409.09813477 -148.2706543 409.8805957 -147.52026367 410.68676758 C-141.16533474 417.30108136 -134.02399277 422.79607839 -126.72729492 428.31567383 C-125.79788086 429.02852539 -124.8684668 429.74137695 -123.91088867 430.47583008 C-79.36567566 463.86814326 -21.70240197 477.817876 33.23046875 470.16943359 C80.54143906 463.01790251 120.701869 441.88929517 155.27270508 409.31567383 C156.44639648 408.22319336 156.44639648 408.22319336 157.64379883 407.10864258 C164.25811261 400.75371365 169.75310964 393.61237167 175.27270508 386.31567383 C175.98555664 385.38625977 176.6984082 384.4568457 177.43286133 383.49926758 C201.99440732 350.73426288 218.10657334 308.46492958 218.51098633 267.34692383 C218.5208255 266.51725098 218.53066467 265.68757812 218.540802 264.83276367 C218.71485378 246.33970864 218.55903516 228.41180249 214.27270508 210.31567383 C214.03664551 209.30230957 213.80058594 208.28894531 213.55737305 207.24487305 C203.9809491 167.38941426 184.1913347 133.94610264 156.27270508 104.31567383 C155.18022461 103.14198242 155.18022461 103.14198242 154.06567383 101.94458008 C147.7107449 95.3302663 140.56940292 89.83526927 133.27270508 84.31567383 C132.34329102 83.60282227 131.41387695 82.8899707 130.45629883 82.15551758 C55.27856726 25.80022849 -50.85009867 27.80074614 -148.72729492 103.31567383 Z " fill="#33A141" transform="translate(252.727294921875,-0.315673828125)"/>
<path d="M0 0 C4.17442056 3.67421766 6.78102899 8.08647914 7.73046875 13.578125 C8.25500986 21.97078276 5.08062255 27.33626526 -0.20703125 33.578125 C-4.36921995 38.02751424 -8.6735304 42.3288159 -12.98608398 46.63183594 C-14.28634514 47.93644992 -15.58618955 49.24147936 -16.88565063 50.54689026 C-20.3994936 54.07406914 -23.91965806 57.59487267 -27.4414432 61.11411953 C-30.38568592 64.05728944 -33.32693983 67.00343742 -36.26825291 69.94953465 C-43.20717508 76.89953205 -50.15138748 83.84421217 -57.09887695 90.78564453 C-64.25922523 97.93994604 -71.41033082 105.1033921 -78.55700916 112.27134681 C-84.70294259 118.43490155 -90.85467335 124.59262775 -97.01105076 130.74575067 C-100.68382369 134.41671238 -104.35434641 138.08985421 -108.01925468 141.76866913 C-111.46405088 145.22604853 -114.91603903 148.67608283 -118.37364578 152.12064934 C-119.63918739 153.3838272 -120.90218984 154.64955503 -122.16241264 155.91803932 C-123.88687903 157.65299096 -125.62039846 159.37837726 -127.35643005 161.10174561 C-127.84944357 161.60213341 -128.34245708 162.1025212 -128.8504104 162.61807227 C-134.04253595 167.73117986 -139.52473634 171.18076167 -146.8828125 171.66796875 C-161.09697963 171.11851355 -171.11171175 156.8499991 -180.4453125 147.54296875 C-181.11825033 146.8728583 -181.79118816 146.20274784 -182.48451805 145.51233101 C-186.03737821 141.97437527 -189.58742014 138.43362122 -193.13500977 134.89038086 C-196.79105467 131.23984497 -200.45630509 127.59869865 -204.12374592 123.95961666 C-206.95379611 121.14819776 -209.77710868 118.33008589 -212.59862328 115.51010323 C-213.94730507 114.16444126 -215.29847953 112.82127261 -216.65221596 111.48069572 C-218.54264639 109.60735499 -220.42334686 107.72473894 -222.30200195 105.83959961 C-222.85839355 105.29242279 -223.41478516 104.74524597 -223.98803711 104.18148804 C-229.07852893 99.03586687 -231.83220932 93.94962296 -232.20703125 86.578125 C-231.55309945 80.7336095 -230.03829033 76.15435112 -226.20703125 71.578125 C-221.20986744 67.80475641 -217.60686456 66.42189607 -211.39453125 66.328125 C-209.86892578 66.28945312 -209.86892578 66.28945312 -208.3125 66.25 C-202.0656346 66.91004616 -198.15099374 70.26144637 -193.84423828 74.6003418 C-193.09677589 75.34714706 -193.09677589 75.34714706 -192.33421326 76.10903931 C-190.70386876 77.74145857 -189.0843847 79.38421173 -187.46484375 81.02734375 C-186.33064445 82.16714367 -185.19577697 83.30627905 -184.06027222 84.44477844 C-181.08461111 87.4318516 -178.11807288 90.42782572 -175.15338135 93.42578125 C-172.12206392 96.48787812 -169.08215409 99.54141871 -166.04296875 102.59570312 C-160.08924143 108.58153035 -154.14513015 114.57679382 -148.20703125 120.578125 C-141.76412334 115.27494461 -135.9284588 109.4132188 -130.05859375 103.49560547 C-128.94602156 102.37783205 -127.83320141 101.26030539 -126.72015381 100.14300537 C-124.33493765 97.74789494 -121.95120018 95.35132605 -119.56854248 92.9536705 C-115.79754697 89.15949969 -112.02157709 85.37030581 -108.24462891 81.58206177 C-97.5089998 70.81308888 -86.77759771 60.0399286 -76.05664062 49.25634766 C-70.12691011 43.29206379 -64.19181111 37.33317723 -58.25071526 31.38021386 C-54.49753886 27.61895665 -50.75101751 23.85123392 -47.0092926 20.07858634 C-44.67783938 17.73108887 -42.34007855 15.38995291 -40.00049591 13.05056 C-38.92036321 11.96801272 -37.84279482 10.88289955 -36.76805878 9.79499435 C-26.25954098 -0.83684886 -14.46066751 -10.04453551 0 0 Z " fill="#33A041" transform="translate(368.20703125,172.421875)"/>
</svg>
