<?xml version="1.0" encoding="UTF-8"?>
<svg version="1.1" xmlns="http://www.w3.org/2000/svg" width="67" height="59">
<path d="M0 0 C22.11 0 44.22 0 67 0 C67 19.47 67 38.94 67 59 C44.89 59 22.78 59 0 59 C0 39.53 0 20.06 0 0 Z " fill="#708A20" transform="translate(0,0)"/>
<path d="M0 0 C0.99 0 1.98 0 3 0 C2.47731534 2.76276177 1.89130413 5.3260876 1 8 C1.66 8 2.32 8 3 8 C3.1875 10.375 3.1875 10.375 3 13 C2.01 13.66 1.02 14.32 0 15 C1.65 18.3 3.3 21.6 5 25 C4.835 23.741875 4.67 22.48375 4.5 21.1875 C3.88926988 15.7855491 3.90866436 10.42939662 4 5 C5.445227 5.54233885 6.88100837 6.10988057 8.3125 6.6875 C9.11300781 7.00074219 9.91351563 7.31398438 10.73828125 7.63671875 C15.69421919 10.62397668 16.94141216 16.25177864 18.625 21.5 C18.8415625 22.15097656 19.058125 22.80195312 19.28125 23.47265625 C20.42266108 26.96030122 21.31603728 30.39856918 22 34 C16.21595259 34.09880115 10.43239516 34.1714363 4.64770508 34.21972656 C2.6795191 34.23985481 0.71139301 34.26716019 -1.2565918 34.30175781 C-4.0839718 34.35022311 -6.91056201 34.37295618 -9.73828125 34.390625 C-10.61962234 34.41127014 -11.50096344 34.43191528 -12.40901184 34.45318604 C-18.4691037 34.45541714 -18.4691037 34.45541714 -21.14135742 32.16308594 C-22 30 -22 30 -21 27 C-20.34 27.33 -19.68 27.66 -19 28 C-19.185625 27.05125 -19.37125 26.1025 -19.5625 25.125 C-20 22 -20 22 -19 20 C-19 19.01 -19 18.02 -19 17 C-18.34 17 -17.68 17 -17 17 C-17.0825 16.0925 -17.165 15.185 -17.25 14.25 C-17 11 -17 11 -15.375 8.625 C-12.3962104 6.5868808 -10.53677664 6.67847485 -7 7 C-6.67 6.01 -6.34 5.02 -6 4 C-5.67 5.65 -5.34 7.3 -5 9 C-4.01 9 -3.02 9 -2 9 C-1.34 6.03 -0.68 3.06 0 0 Z " fill="#F2F5F8" transform="translate(33,25)"/>
<path d="M0 0 C2.3125 0 2.3125 0 5 1 C8.1931789 6.96060061 8.25832105 11.45066633 7 18 C6.34 18 5.68 18 5 18 C5.66 25.26 6.32 32.52 7 40 C6.01 40.495 6.01 40.495 5 41 C4.35309078 39.3962669 3.70751236 37.79199694 3.0625 36.1875 C2.70285156 35.29417969 2.34320313 34.40085938 1.97265625 33.48046875 C1.26386514 31.6729091 0.6139753 29.84192591 0 28 C1.32 27.67 2.64 27.34 4 27 C4 25.35 4 23.7 4 22 C3.34 22 2.68 22 2 22 C2.66666667 19.33333333 3.33333333 16.66666667 4 14 C3.01 14 2.02 14 1 14 C1.04125 14.7425 1.0825 15.485 1.125 16.25 C0.99601866 19.08758952 0.42948778 20.58773938 -1 23 C-1.99 23 -2.98 23 -4 23 C-4.66 22.34 -5.32 21.68 -6 21 C-9.45136841 21.38864654 -9.45136841 21.38864654 -13 23 C-14.50508323 25.54307167 -15.30140397 28.13908292 -16 31 C-16.66 31 -17.32 31 -18 31 C-17.814375 31.969375 -17.62875 32.93875 -17.4375 33.9375 C-17.293125 34.948125 -17.14875 35.95875 -17 37 C-17.495 37.495 -17.495 37.495 -18 38 C-18 39.32 -18 40.64 -18 42 C-18.66 42 -19.32 42 -20 42 C-19.34 43.98 -18.68 45.96 -18 48 C-22.62 48 -27.24 48 -32 48 C-32 38.43 -32 28.86 -32 19 C-30.35 19 -28.7 19 -27 19 C-26.34 18.34 -25.68 17.68 -25 17 C-24.67 17.66 -24.34 18.32 -24 19 C-24.0928125 17.824375 -24.0928125 17.824375 -24.1875 16.625 C-24.125625 15.75875 -24.06375 14.8925 -24 14 C-23.01 13.34 -22.02 12.68 -21 12 C-19.80767387 9.94996045 -19.80767387 9.94996045 -19 8 C-19.33 8.33 -19.66 8.66 -20 9 C-20.99 9 -21.98 9 -23 9 C-22.67 8.34 -22.34 7.68 -22 7 C-22.66 7 -23.32 7 -24 7 C-24 5.35 -24 3.7 -24 2 C-23.34 2 -22.68 2 -22 2 C-22 2.66 -22 3.32 -22 4 C-20.02 3.34 -18.04 2.68 -16 2 C-16 2.66 -16 3.32 -16 4 C-15.4225 4.061875 -14.845 4.12375 -14.25 4.1875 C-11.01617979 5.35526841 -9.86934106 7.16375839 -8 10 C-7.25 12.8125 -7.25 12.8125 -7 15 C-6.34 15 -5.68 15 -5 15 C-5.185625 13.906875 -5.37125 12.81375 -5.5625 11.6875 C-6 8 -6 8 -5 5 C-4.01 5 -3.02 5 -2 5 C-1.34 3.35 -0.68 1.7 0 0 Z " fill="#B1B85C" transform="translate(32,11)"/>
<path d="M0 0 C6.93 0 13.86 0 21 0 C20.67 0.99 20.34 1.98 20 3 C20.33 3.66 20.66 4.32 21 5 C20.67 5.66 20.34 6.32 20 7 C19.01 7.33 18.02 7.66 17 8 C18.65 8 20.3 8 22 8 C22.33 7.34 22.66 6.68 23 6 C23.33 6.66 23.66 7.32 24 8 C26.31 7.34 28.62 6.68 31 6 C31 6.99 31 7.98 31 9 C32.98 8.67 34.96 8.34 37 8 C37.495 10.475 37.495 10.475 38 13 C36.02 12.34 34.04 11.68 32 11 C31.731875 12.134375 31.46375 13.26875 31.1875 14.4375 C30.795625 15.613125 30.40375 16.78875 30 18 C29.01 18.33 28.02 18.66 27 19 C27 21.31 27 23.62 27 26 C26.34 26 25.68 26 25 26 C24.731875 24.865625 24.46375 23.73125 24.1875 22.5625 C23.795625 21.386875 23.40375 20.21125 23 19 C22.01 18.67 21.02 18.34 20 18 C19.67 17.34 19.34 16.68 19 16 C18.01 15.67 17.02 15.34 16 15 C16 14.34 16 13.68 16 13 C12.20452079 13.96776098 12.20452079 13.96776098 9 16 C8.67 16.66 8.34 17.32 8 18 C8.66 18 9.32 18 10 18 C10.33 18.66 10.66 19.32 11 20 C11.33 19.34 11.66 18.68 12 18 C12.99 18.33 13.98 18.66 15 19 C14.34 19 13.68 19 13 19 C12.67 20.98 12.34 22.96 12 25 C11.01 25.33 10.02 25.66 9 26 C9 27.98 9 29.96 9 32 C8.34 31.34 7.68 30.68 7 30 C6.01 30.33 5.02 30.66 4 31 C2.68 30.67 1.36 30.34 0 30 C0 20.1 0 10.2 0 0 Z " fill="#50700A" transform="translate(0,0)"/>
<path d="M0 0 C1.98 0 3.96 0 6 0 C6 19.47 6 38.94 6 59 C2.7 59 -0.6 59 -4 59 C-3.979375 57.9275 -3.95875 56.855 -3.9375 55.75 C-3.83557572 52.25714137 -3.83557572 52.25714137 -4.5625 50.01171875 C-5.07769592 47.64273751 -4.7412706 46.37386917 -4.0625 44.0625 C-2.57145817 38.0783187 -2.82954116 32.12704823 -3 26 C-3.12117188 26.78246094 -3.24234375 27.56492187 -3.3671875 28.37109375 C-3.53476562 29.38300781 -3.70234375 30.39492188 -3.875 31.4375 C-4.03742187 32.44683594 -4.19984375 33.45617188 -4.3671875 34.49609375 C-4.57601562 35.32238281 -4.78484375 36.14867187 -5 37 C-5.99 37.495 -5.99 37.495 -7 38 C-6.85923685 36.0412957 -6.7122324 34.08303907 -6.5625 32.125 C-6.48128906 31.03445312 -6.40007813 29.94390625 -6.31640625 28.8203125 C-6 26 -6 26 -5 24 C-4.34 24 -3.68 24 -3 24 C-2.814375 22.741875 -2.62875 21.48375 -2.4375 20.1875 C-2.33308594 19.47980469 -2.22867188 18.77210937 -2.12109375 18.04296875 C-1.86095201 15.7974658 -1.86095201 15.7974658 -3 13 C-2.44140625 10.1171875 -2.44140625 10.1171875 -1.5625 6.875 C-0.49046565 3.48907157 -0.49046565 3.48907157 0 0 Z " fill="#A29687" transform="translate(61,0)"/>
<path d="M0 0 C1.134375 0.020625 2.26875 0.04125 3.4375 0.0625 C4.67571526 3.77714578 3.98876222 5.3957379 2.9375 9.125 C1.50627304 13.18160369 1.50627304 13.18160369 2.4375 17.0625 C1.82989518 19.4119053 1.16620472 21.74779088 0.4375 24.0625 C-0.2225 24.0625 -0.8825 24.0625 -1.5625 24.0625 C-1.8925 28.3525 -2.2225 32.6425 -2.5625 37.0625 C-2.27375 35.268125 -1.985 33.47375 -1.6875 31.625 C-1.1953125 28.56640625 -1.1953125 28.56640625 -0.5625 26.0625 C0.0975 25.7325 0.7575 25.4025 1.4375 25.0625 C1.64313031 32.88787569 1.53261427 40.20340707 -0.22265625 47.85546875 C-0.76040215 50.23033187 -0.76040215 50.23033187 0.4375 53.0625 C0.16178861 55.07125442 -0.16485737 57.07428687 -0.5625 59.0625 C-1.2225 59.0625 -1.8825 59.0625 -2.5625 59.0625 C-5.40138472 52.37300037 -7.68793669 45.62624803 -9.73046875 38.65234375 C-10.31401384 36.1586745 -10.31401384 36.1586745 -11.5625 35.0625 C-11.38614548 32.37167128 -10.94414079 29.73398554 -10.5625 27.0625 C-11.2225 26.7325 -11.8825 26.4025 -12.5625 26.0625 C-11.9025 25.7325 -11.2425 25.4025 -10.5625 25.0625 C-9.73117036 22.66527679 -9.73117036 22.66527679 -9.08984375 19.75 C-8.83009766 18.67492187 -8.57035156 17.59984375 -8.30273438 16.4921875 C-8.03783203 15.36039063 -7.77292969 14.22859375 -7.5 13.0625 C-6.9704657 10.83261454 -6.43806966 8.60340604 -5.90234375 6.375 C-5.66894287 5.38113281 -5.43554199 4.38726562 -5.19506836 3.36328125 C-4.18165643 -0.32270641 -4.09057351 0.07176445 0 0 Z " fill="#5D5237" transform="translate(57.5625,-0.0625)"/>
<path d="M0 0 C0.66 0.66 1.32 1.32 2 2 C2.99 1.67 3.98 1.34 5 1 C7.26171875 1.55859375 7.26171875 1.55859375 9.6875 2.4375 C10.49574219 2.72496094 11.30398437 3.01242188 12.13671875 3.30859375 C12.75160156 3.53675781 13.36648437 3.76492187 14 4 C12.8905928 7.48670834 11.73662334 10.77484237 10 14 C9.34 14 8.68 14 8 14 C8.185625 14.969375 8.37125 15.93875 8.5625 16.9375 C8.706875 17.948125 8.85125 18.95875 9 20 C8.67 20.33 8.34 20.66 8 21 C8 22.32 8 23.64 8 25 C7.34 25 6.68 25 6 25 C6.66 26.98 7.32 28.96 8 31 C3.38 31 -1.24 31 -6 31 C-6 21.43 -6 11.86 -6 2 C-4.35 2 -2.7 2 -1 2 C-0.67 1.34 -0.34 0.68 0 0 Z " fill="#8E8756" transform="translate(6,28)"/>
<path d="M0 0 C1.445227 0.54233885 2.88100837 1.10988057 4.3125 1.6875 C5.11300781 2.00074219 5.91351563 2.31398437 6.73828125 2.63671875 C11.69421919 5.62397668 12.94141216 11.25177864 14.625 16.5 C14.8415625 17.15097656 15.058125 17.80195312 15.28125 18.47265625 C16.43173412 21.9880244 17.27150716 25.35753579 18 29 C12.72 29 7.44 29 2 29 C-0.38297872 9.65957447 -0.38297872 9.65957447 0 0 Z " fill="#F9FAFC" transform="translate(37,30)"/>
<path d="M0 0 C2.59579673 3.89369509 4.07312927 8.03960309 5.78125 12.3828125 C6.72694893 15.12265568 6.72694893 15.12265568 9 16 C9 18.64 9 21.28 9 24 C6.56131832 24.1079859 4.12740867 24.18726589 1.6875 24.25 C0.99720703 24.28351562 0.30691406 24.31703125 -0.40429688 24.3515625 C-3.7260898 24.41575174 -5.51467694 24.43428527 -8.04296875 22.171875 C-9 20 -9 20 -8 17 C-7.34 17.33 -6.68 17.66 -6 18 C-6.185625 17.05125 -6.37125 16.1025 -6.5625 15.125 C-7 12 -7 12 -6 10 C-6 9.01 -6 8.02 -6 7 C-5.34 7 -4.68 7 -4 7 C-4 5.02 -4 3.04 -4 1 C-3.67 1.66 -3.34 2.32 -3 3 C-2.34 3 -1.68 3 -1 3 C-0.67 3.33 -0.34 3.66 0 4 C0 2.68 0 1.36 0 0 Z " fill="#B2BDB3" transform="translate(20,35)"/>
<path d="M0 0 C0.33 0 0.66 0 1 0 C1 12.87 1 25.74 1 39 C-1.64 39 -4.28 39 -7 39 C-6.94008594 37.04081032 -6.85132862 35.08248471 -6.75 33.125 C-6.70359375 32.03445312 -6.6571875 30.94390625 -6.609375 29.8203125 C-6 27 -6 27 -3.953125 25.6171875 C-3.30859375 25.41351563 -2.6640625 25.20984375 -2 25 C-2.33 23.35 -2.66 21.7 -3 20 C-2.34 19.67 -1.68 19.34 -1 19 C-2.32 18.67 -3.64 18.34 -5 18 C-3.25740319 5.33029613 -3.25740319 5.33029613 0 0 Z " fill="#F9F8F5" transform="translate(66,15)"/>
<path d="M0 0 C1.88671875 0.28125 1.88671875 0.28125 4 1 C7.11313805 7.01157693 7.26280393 11.42733376 6 18 C5.34 18 4.68 18 4 18 C4.66 25.26 5.32 32.52 6 40 C5.01 40.495 5.01 40.495 4 41 C3.35309078 39.3962669 2.70751236 37.79199694 2.0625 36.1875 C1.70285156 35.29417969 1.34320313 34.40085938 0.97265625 33.48046875 C0.26386514 31.6729091 -0.3860247 29.84192591 -1 28 C0.32 27.67 1.64 27.34 3 27 C3 25.35 3 23.7 3 22 C2.34 22 1.68 22 1 22 C1.66666667 19.33333333 2.33333333 16.66666667 3 14 C2.01 14 1.02 14 0 14 C0.061875 15.11375 0.061875 15.11375 0.125 16.25 C-0.00398134 19.08758952 -0.57051222 20.58773938 -2 23 C-2.99 23 -3.98 23 -5 23 C-5.33 22.01 -5.66 21.02 -6 20 C-5.34 19.34 -4.68 18.68 -4 18 C-3.01 18 -2.02 18 -1 18 C-1.185625 17.34 -1.37125 16.68 -1.5625 16 C-2.13027308 12.10669886 -1.59281707 8.88624521 -1 5 C-0.67 5.66 -0.34 6.32 0 7 C0.66 6.34 1.32 5.68 2 5 C1.34 4.67 0.68 4.34 0 4 C0 2.68 0 1.36 0 0 Z " fill="#CDB99F" transform="translate(33,11)"/>
<path d="M0 0 C1.406617 2.90700847 1.04092665 3.87722005 0 7 C-0.06937062 9.22818441 -0.08457084 11.45834524 -0.0625 13.6875 C-0.05347656 14.86699219 -0.04445313 16.04648437 -0.03515625 17.26171875 C-0.02355469 18.16535156 -0.01195312 19.06898437 0 20 C-3.63 20 -7.26 20 -11 20 C-11 18.35 -11 16.7 -11 15 C-10.01 15 -9.02 15 -8 15 C-8 10.05 -8 5.1 -8 0 C-8.66 -0.33 -9.32 -0.66 -10 -1 C-6.19477237 -2.46354909 -3.63038537 -1.69417984 0 0 Z " fill="#3D3C26" transform="translate(11,39)"/>
<path d="M0 0 C0.99 0.33 1.98 0.66 3 1 C2.823479 1.70084717 2.64695801 2.40169434 2.46508789 3.1237793 C1.66297979 6.31137429 0.86272181 9.49943097 0.0625 12.6875 C-0.21529297 13.79029297 -0.49308594 14.89308594 -0.77929688 16.02929688 C-1.04677734 17.09599609 -1.31425781 18.16269531 -1.58984375 19.26171875 C-1.83597412 20.24100342 -2.08210449 21.22028809 -2.33569336 22.22924805 C-2.77180939 24.04824136 -3.16862216 25.87719822 -3.52172852 27.71411133 C-4.01673549 30.07998695 -4.83060245 31.89508441 -6 34 C-7.5625 32.9375 -7.5625 32.9375 -9 31 C-8.6875 27.3125 -8.6875 27.3125 -8 24 C-7.34 24 -6.68 24 -6 24 C-6.14308594 23.03900391 -6.14308594 23.03900391 -6.2890625 22.05859375 C-7.01412633 16.40140965 -6.9805089 12.35902409 -5 7 C-6.65 7 -8.3 7 -10 7 C-9.360625 6.7525 -8.72125 6.505 -8.0625 6.25 C-5.81258459 5.18437567 -5.81258459 5.18437567 -5.25 2.875 C-5.1675 2.25625 -5.085 1.6375 -5 1 C-3.35 1.33 -1.7 1.66 0 2 C0 1.34 0 0.68 0 0 Z " fill="#C2DC26" transform="translate(51,0)"/>
<path d="M0 0 C0.33 0 0.66 0 1 0 C1.20563031 7.82537569 1.09511427 15.14090707 -0.66015625 22.79296875 C-1.19790215 25.16783187 -1.19790215 25.16783187 0 28 C-0.27571139 30.00875442 -0.60235737 32.01178687 -1 34 C-1.66 34 -2.32 34 -3 34 C-5.93841629 27.12380756 -8.180206 20.25160335 -10 13 C-9.34 13 -8.68 13 -8 13 C-7.67 11.02 -7.34 9.04 -7 7 C-4.48916886 8.25541557 -4.12874554 9.50063488 -3 12 C-2.80083984 10.82630859 -2.80083984 10.82630859 -2.59765625 9.62890625 C-2.42105469 8.61699219 -2.24445312 7.60507812 -2.0625 6.5625 C-1.88847656 5.55316406 -1.71445312 4.54382813 -1.53515625 3.50390625 C-1 1 -1 1 0 0 Z " fill="#867C6E" transform="translate(58,25)"/>
<path d="M0 0 C0.99 0.495 0.99 0.495 2 1 C1.67 1.66 1.34 2.32 1 3 C2.65 2.67 4.3 2.34 6 2 C6 1.34 6 0.68 6 0 C6.66 0 7.32 0 8 0 C8 0.66 8 1.32 8 2 C8.66 2 9.32 2 10 2 C10.33 2.66 10.66 3.32 11 4 C11.33 3.34 11.66 2.68 12 2 C12.99 2.33 13.98 2.66 15 3 C14.34 3 13.68 3 13 3 C12.67 4.98 12.34 6.96 12 9 C11.01 9.33 10.02 9.66 9 10 C9 11.98 9 13.96 9 16 C8.34 15.34 7.68 14.68 7 14 C6.01 14.33 5.02 14.66 4 15 C2.68 14.67 1.36 14.34 0 14 C0 9.38 0 4.76 0 0 Z " fill="#76861A" transform="translate(0,16)"/>
<path d="M0 0 C1.134375 0.020625 2.26875 0.04125 3.4375 0.0625 C5.75198868 7.00596605 0.44774472 16.59047384 -2.5625 23.0625 C-3.81244015 19.31267954 -3.07543714 18.22423291 -1.625 14.625 C-0.17480023 11.01179039 0.4375 9.0337753 0.4375 5.0625 C-1.78906164 9.80604436 -3.02398032 13.78500715 -3.5625 19.0625 C-4.2225 19.0625 -4.8825 19.0625 -5.5625 19.0625 C-5.5625 20.0525 -5.5625 21.0425 -5.5625 22.0625 C-6.5525 22.0625 -7.5425 22.0625 -8.5625 22.0625 C-8.7979811 17.17816622 -7.94070551 12.91642959 -6.625 8.25 C-6.35139648 7.2300293 -6.35139648 7.2300293 -6.07226562 6.18945312 C-4.39640432 0.0771299 -4.39640432 0.0771299 0 0 Z " fill="#3F3817" transform="translate(57.5625,-0.0625)"/>
<path d="M0 0 C0.66 0 1.32 0 2 0 C2 0.66 2 1.32 2 2 C3.98 1.34 5.96 0.68 8 0 C8 0.66 8 1.32 8 2 C8.5775 2.061875 9.155 2.12375 9.75 2.1875 C12.88690987 3.32027301 14.09167504 5.34197595 16 8 C13.33333333 10.66666667 10.66666667 13.33333333 8 16 C6.35 14.35 4.7 12.7 3 11 C3.66 9.35 4.32 7.7 5 6 C4.67 6.33 4.34 6.66 4 7 C3.01 7 2.02 7 1 7 C1.33 6.34 1.66 5.68 2 5 C1.34 5 0.68 5 0 5 C0 3.35 0 1.7 0 0 Z " fill="#C1CF47" transform="translate(8,13)"/>
<path d="M0 0 C5.445 1.485 5.445 1.485 11 3 C9.8905928 6.48670834 8.73662334 9.77484237 7 13 C6.34 13 5.68 13 5 13 C5.185625 13.969375 5.37125 14.93875 5.5625 15.9375 C5.706875 16.948125 5.85125 17.95875 6 19 C5.67 19.33 5.34 19.66 5 20 C5 21.32 5 22.64 5 24 C4.34 24 3.68 24 3 24 C3.66 25.98 4.32 27.96 5 30 C3.68 29.67 2.36 29.34 1 29 C0.66547948 21.56621057 0.86097148 15.80122845 4 9 C3.34 9 2.68 9 2 9 C0.50178941 5.62902617 0 3.79557881 0 0 Z " fill="#AEB57C" transform="translate(9,29)"/>
<path d="M0 0 C0.80179688 0.00451172 1.60359375 0.00902344 2.4296875 0.01367188 C4.41149006 0.02546832 6.39325433 0.04340395 8.375 0.0625 C8.045 2.3725 7.715 4.6825 7.375 7.0625 C6.055 6.0725 4.735 5.0825 3.375 4.0625 C3.045 4.7225 2.715 5.3825 2.375 6.0625 C-0.5 7.75 -0.5 7.75 -3.625 9.0625 C-4.615 8.7325 -5.605 8.4025 -6.625 8.0625 C-8.96359436 8.0625 -11.32530423 8.67106242 -13.625 9.0625 C-13.625 8.0725 -13.625 7.0825 -13.625 6.0625 C-12.305 6.3925 -10.985 6.7225 -9.625 7.0625 C-9.955 5.0825 -10.285 3.1025 -10.625 1.0625 C-7.31505287 -0.59247356 -3.63377 -0.03834335 0 0 Z " fill="#60731A" transform="translate(29.625,-0.0625)"/>
<path d="M0 0 C0.33 0 0.66 0 1 0 C1.33 1.65 1.66 3.3 2 5 C2.33 4.34 2.66 3.68 3 3 C3.99 3 4.98 3 6 3 C5.34 4.65 4.68 6.3 4 8 C4.66 8.33 5.32 8.66 6 9 C5.36578125 9.20367187 4.7315625 9.40734375 4.078125 9.6171875 C1.70935435 10.87221871 1.70935435 10.87221871 1.171875 13.8203125 C1.03265625 14.91085938 0.8934375 16.00140625 0.75 17.125 C0.60046875 18.22070312 0.4509375 19.31640625 0.296875 20.4453125 C0.19890625 21.28835937 0.1009375 22.13140625 0 23 C2.64 23 5.28 23 8 23 C8 24.65 8 26.3 8 28 C4.7 28 1.4 28 -2 28 C-1.979375 26.9275 -1.95875 25.855 -1.9375 24.75 C-1.84136632 21.26154295 -1.84136632 21.26154295 -2.53881836 19.02246094 C-3.0629559 16.72391388 -2.87838618 15.19787903 -2.44140625 12.890625 C-2.30283203 12.13652344 -2.16425781 11.38242187 -2.02148438 10.60546875 C-1.87001953 9.82816406 -1.71855469 9.05085938 -1.5625 8.25 C-1.41490234 7.45722656 -1.26730469 6.66445313 -1.11523438 5.84765625 C-0.75096034 3.89702754 -0.37647488 1.9483107 0 0 Z " fill="#9AAC86" transform="translate(59,31)"/>
<path d="M0 0 C4.1434717 4.1434717 4.13618967 10.29683409 4.1875 15.875 C4.1539548 20.6920904 4.1539548 20.6920904 3 23 C0.6875 23.25 0.6875 23.25 -2 23 C-3.875 21.1875 -3.875 21.1875 -5 19 C-4.505 17.515 -4.505 17.515 -4 16 C-3.34 16.33 -2.68 16.66 -2 17 C-2.185625 16.05125 -2.37125 15.1025 -2.5625 14.125 C-3 11 -3 11 -2 9 C-2 8.01 -2 7.02 -2 6 C-1.34 6 -0.68 6 0 6 C0 4.02 0 2.04 0 0 Z " fill="#E1E7EB" transform="translate(16,36)"/>
<path d="M0 0 C0.66 0.33 1.32 0.66 2 1 C2 1.66 2 2.32 2 3 C3.98 2.67 5.96 2.34 8 2 C8.33 3.65 8.66 5.3 9 7 C7.02 6.34 5.04 5.68 3 5 C2.731875 6.134375 2.46375 7.26875 2.1875 8.4375 C1.795625 9.613125 1.40375 10.78875 1 12 C0.01 12.33 -0.98 12.66 -2 13 C-2 15.31 -2 17.62 -2 20 C-2.66 20 -3.32 20 -4 20 C-7.72754753 10.49953271 -7.72754753 10.49953271 -5.9375 6.0625 C-4.14630931 3.2312631 -2.86065699 1.67693686 0 0 Z " fill="#2C2206" transform="translate(29,6)"/>
<path d="M0 0 C0.103125 0.639375 0.20625 1.27875 0.3125 1.9375 C0.539375 2.618125 0.76625 3.29875 1 4 C1.99 4.33 2.98 4.66 4 5 C3.67 5.66 3.34 6.32 3 7 C2.34 7 1.68 7 1 7 C0.67 10.63 0.34 14.26 0 18 C-1.65 18.66 -3.3 19.32 -5 20 C-6.6 9.8 -6.6 9.8 -5 5 C-4.01 5 -3.02 5 -2 5 C-1.34 3.35 -0.68 1.7 0 0 Z " fill="#885B25" transform="translate(32,11)"/>
<path d="M0 0 C1.89443766 2.78593773 2.01488277 3.90140166 1.5 7.3125 C0.91045282 11.66041044 1.58294656 13.91555186 3 18 C2.34 18.66 1.68 19.32 1 20 C0.32880451 18.5437455 -0.33681807 17.08492133 -1 15.625 C-1.37125 14.81289063 -1.7425 14.00078125 -2.125 13.1640625 C-3 11 -3 11 -3 9 C-3.99 9.495 -3.99 9.495 -5 10 C-5 11.98 -5 13.96 -5 16 C-7.12300942 12.46165096 -7.69690596 9.09176955 -8 5 C-6 3 -6 3 -2.875 2.875 C-1.92625 2.91625 -0.9775 2.9575 0 3 C0 2.01 0 1.02 0 0 Z " fill="#CCD4D8" transform="translate(26,29)"/>
<path d="M0 0 C2.475 0.495 2.475 0.495 5 1 C5.33 2.65 5.66 4.3 6 6 C5.34 6 4.68 6 4 6 C4.33 6.99 4.66 7.98 5 9 C4.34 9 3.68 9 3 9 C3.34786708 10.97536745 3.34786708 10.97536745 4 13 C6.0745356 14.2236068 6.0745356 14.2236068 9 14 C9 14.66 9 15.32 9 16 C8.01 16 7.02 16 6 16 C6 16.66 6 17.32 6 18 C4.35 18.33 2.7 18.66 1 19 C-0.25433458 15.23699626 -0.10695422 11.72789091 -0.0625 7.8125 C-0.05798828 7.06291016 -0.05347656 6.31332031 -0.04882812 5.54101562 C-0.03706354 3.69397617 -0.01912865 1.84697787 0 0 Z " fill="#556014" transform="translate(0,0)"/>
<path d="M0 0 C2 0 2 0 4.625 2.5 C5.40875 3.325 6.1925 4.15 7 5 C7.66 4.67 8.32 4.34 9 4 C9.33 6.31 9.66 8.62 10 11 C8.3603125 11.2165625 8.3603125 11.2165625 6.6875 11.4375 C3.06877013 11.88288104 3.06877013 11.88288104 0 13 C-0.625 11.25 -0.625 11.25 -1 9 C-0.505 8.0409375 -0.505 8.0409375 0 7.0625 C1.31040647 4.35978665 0.78610392 2.82997412 0 0 Z " fill="#6C7B20" transform="translate(4,0)"/>
<path d="M0 0 C0.33 0 0.66 0 1 0 C1 5.61 1 11.22 1 17 C-0.98 17.33 -2.96 17.66 -5 18 C-3.25740319 5.33029613 -3.25740319 5.33029613 0 0 Z " fill="#E0DEC5" transform="translate(66,15)"/>
<path d="M0 0 C0.99 0.495 0.99 0.495 2 1 C2.6875 4.5 2.6875 4.5 3 8 C2.67 8.33 2.34 8.66 2 9 C2.969375 8.979375 3.93875 8.95875 4.9375 8.9375 C8 9 8 9 9 10 C9.04080783 11.99958364 9.04254356 14.00045254 9 16 C8.34 15.34 7.68 14.68 7 14 C6.01 14.33 5.02 14.66 4 15 C2.68 14.67 1.36 14.34 0 14 C0 9.38 0 4.76 0 0 Z " fill="#87803E" transform="translate(0,16)"/>
<path d="M0 0 C2.40072955 2.88087546 4.47291037 5.56404834 6 9 C6.66 8.67 7.32 8.34 8 8 C10.20914 11.31371 10.22481553 12.3446021 10.125 16.1875 C10.10695313 17.08855469 10.08890625 17.98960938 10.0703125 18.91796875 C10.03550781 19.94857422 10.03550781 19.94857422 10 21 C9.01 21 8.02 21 7 21 C7 18.36 7 15.72 7 13 C6.401875 12.835 5.80375 12.67 5.1875 12.5 C1.83614808 10.20193012 1.00427602 6.84211661 0 3 C0 2.01 0 1.02 0 0 Z " fill="#E5EBF3" transform="translate(22,38)"/>
<path d="M0 0 C1.32 0.66 2.64 1.32 4 2 C2.39583333 13.6875 2.39583333 13.6875 0 18 C-1.5625 16.9375 -1.5625 16.9375 -3 15 C-2.6875 11.3125 -2.6875 11.3125 -2 8 C-1.34 8 -0.68 8 0 8 C0 5.36 0 2.72 0 0 Z " fill="#A0A28D" transform="translate(45,16)"/>
<path d="M0 0 C1.65 0.33 3.3 0.66 5 1 C5.33 2.65 5.66 4.3 6 6 C5.34 6 4.68 6 4 6 C3.67 8.31 3.34 10.62 3 13 C0.5625 12.625 0.5625 12.625 -2 12 C-2.33 11.34 -2.66 10.68 -3 10 C-2.34 10 -1.68 10 -1 10 C-1.20625 9.0925 -1.4125 8.185 -1.625 7.25 C-2.0127245 3.88972103 -1.80411967 2.75924185 0 0 Z " fill="#7C8068" transform="translate(40,19)"/>
<path d="M0 0 C1.8828125 0.26171875 1.8828125 0.26171875 4 1 C5.61354093 3.46544541 6.43444523 6.11623065 7 9 C6.1875 11.5 6.1875 11.5 5 13 C4.01 12.01 3.02 11.02 2 10 C1.34 10.66 0.68 11.32 0 12 C-0.33 9.69 -0.66 7.38 -1 5 C-0.67 5.66 -0.34 6.32 0 7 C0.66 6.34 1.32 5.68 2 5 C1.34 4.67 0.68 4.34 0 4 C0 2.68 0 1.36 0 0 Z " fill="#F7E5E0" transform="translate(33,11)"/>
<path d="M0 0 C0.66 0 1.32 0 2 0 C2 0.66 2 1.32 2 2 C3.65 2 5.3 2 7 2 C7 4.66666667 7 7.33333333 7 10 C5.35 10.66 3.7 11.32 2 12 C1.01 8.37 0.02 4.74 -1 1 C-0.67 0.67 -0.34 0.34 0 0 Z " fill="#688414" transform="translate(39,5)"/>
<path d="M0 0 C0.99 0 1.98 0 3 0 C2.47731534 2.76276177 1.89130413 5.3260876 1 8 C1.66 8 2.32 8 3 8 C3 9.65 3 11.3 3 13 C1.35 13.33 -0.3 13.66 -2 14 C-2.66 12.35 -3.32 10.7 -4 9 C-3.34 9 -2.68 9 -2 9 C-1.34 6.03 -0.68 3.06 0 0 Z " fill="#F4D7CA" transform="translate(33,25)"/>
<path d="M0 0 C0.66 0 1.32 0 2 0 C2.027193 1.58323688 2.04648306 3.16661062 2.0625 4.75 C2.07410156 5.63171875 2.08570312 6.5134375 2.09765625 7.421875 C2.00826198 9.7818838 1.66912821 11.74498524 1 14 C0.34 13.67 -0.32 13.34 -1 13 C-1 12.01 -1 11.02 -1 10 C-1.99 13.465 -1.99 13.465 -3 17 C-3.33 17 -3.66 17 -4 17 C-4.33252584 10.792851 -3.50054525 6.70124316 -1 1 C-0.67 0.67 -0.34 0.34 0 0 Z " fill="#766456" transform="translate(65,0)"/>
<path d="M0 0 C0.99 0.33 1.98 0.66 3 1 C2.67 2.32 2.34 3.64 2 5 C0.35 4.67 -1.3 4.34 -3 4 C-2.67 4.33 -2.34 4.66 -2 5 C-1.67 5.66 -1.34 6.32 -1 7 C-1.93446535 9.03144641 -2.93224776 11.03533587 -4 13 C-4.99 13 -5.98 13 -7 13 C-6.34 11.02 -5.68 9.04 -5 7 C-6.65 7 -8.3 7 -10 7 C-9.360625 6.7525 -8.72125 6.505 -8.0625 6.25 C-5.81258459 5.18437567 -5.81258459 5.18437567 -5.25 2.875 C-5.1675 2.25625 -5.085 1.6375 -5 1 C-3.35 1.33 -1.7 1.66 0 2 C0 1.34 0 0.68 0 0 Z " fill="#C4D764" transform="translate(51,0)"/>
<path d="M0 0 C0.66 0 1.32 0 2 0 C3.32 2.97 4.64 5.94 6 9 C6.33 9 6.66 9 7 9 C7 11.64 7 14.28 7 17 C6.01 16.67 5.02 16.34 4 16 C3.0859375 13.75 3.0859375 13.75 2.375 11 C1.712884 7.71560993 1.712884 7.71560993 0 5 C-0.04063832 3.33382885 -0.042721 1.66611905 0 0 Z " fill="#C9C9CA" transform="translate(32,42)"/>
<path d="M0 0 C0.66 0.33 1.32 0.66 2 1 C3.45245707 7.0739114 2.72295195 12.84934723 2 19 C-0.46301423 16.53698577 -0.76766521 14.72639964 -1.625 11.375 C-1.88539062 10.37210938 -2.14578125 9.36921875 -2.4140625 8.3359375 C-2.60742188 7.56507812 -2.80078125 6.79421875 -3 6 C-2.34 6 -1.68 6 -1 6 C-0.67 4.02 -0.34 2.04 0 0 Z " fill="#706754" transform="translate(51,32)"/>
<path d="M0 0 C-0.14308594 0.92232422 -0.14308594 0.92232422 -0.2890625 1.86328125 C-0.39992188 2.67152344 -0.51078125 3.47976562 -0.625 4.3125 C-0.74101563 5.11300781 -0.85703125 5.91351563 -0.9765625 6.73828125 C-1.21533407 9.28723215 -1.21533407 9.28723215 1 12 C0.34 13.32 -0.32 14.64 -1 16 C-3.0625 14.5 -3.0625 14.5 -5 12 C-5.05928384 9.17593353 -4.55954815 6.79774073 -4 4 C-4.66 3.67 -5.32 3.34 -6 3 C-3.375 0 -3.375 0 0 0 Z " fill="#413C1B" transform="translate(51,23)"/>
<path d="M0 0 C3.96 0 7.92 0 12 0 C10 4 10 4 6.875 5.25 C5.92625 5.4975 4.9775 5.745 4 6 C2.62437146 4.71034824 1.29233607 3.37310707 0 2 C0 1.34 0 0.68 0 0 Z " fill="#52690D" transform="translate(6,0)"/>
<path d="M0 0 C0.33 0 0.66 0 1 0 C2.03590199 5.05002222 2.10251672 9.87416389 2 15 C1.01 15.495 1.01 15.495 0 16 C-0.66 15.67 -1.32 15.34 -2 15 C-2.05429959 13.25034642 -2.09292823 11.50020213 -2.125 9.75 C-2.15980469 8.28820312 -2.15980469 8.28820312 -2.1953125 6.796875 C-1.99862781 3.9803502 -1.44568916 2.39050964 0 0 Z " fill="#C1B39F" transform="translate(2,39)"/>
<path d="M0 0 C1.32 0.33 2.64 0.66 4 1 C2.26751883 8.63866698 0.13135691 15.81536384 -3 23 C-4.25131157 19.2460653 -3.50281542 18.26163009 -2 14.6875 C-0.29685146 10.28721522 0.27848539 7.64903778 -1 3 C-0.67 2.01 -0.34 1.02 0 0 Z " fill="#56442B" transform="translate(58,0)"/>
<path d="M0 0 C0.33 0.99 0.66 1.98 1 3 C4.00847418 4.22520264 4.00847418 4.22520264 7 5 C6.34 6.32 5.68 7.64 5 9 C4.01 8.67 3.02 8.34 2 8 C-0.33859436 8 -2.70030423 8.60856242 -5 9 C-5 8.01 -5 7.02 -5 6 C-3.68 6.33 -2.36 6.66 -1 7 C-1.33 5.02 -1.66 3.04 -2 1 C-1.34 0.67 -0.68 0.34 0 0 Z " fill="#879D28" transform="translate(21,0)"/>
<path d="M0 0 C0.33 0 0.66 0 1 0 C1.33 2.31 1.66 4.62 2 7 C3.32 7 4.64 7 6 7 C6 7.99 6 8.98 6 10 C3.36 10 0.72 10 -2 10 C-2.66 7.03 -3.32 4.06 -4 1 C-3.01 1.33 -2.02 1.66 -1 2 C-0.67 1.34 -0.34 0.68 0 0 Z " fill="#EFF2F8" transform="translate(49,49)"/>
<path d="M0 0 C3.87540045 -0.17615457 6.75515269 -0.28341107 10 2 C10.33 2.99 10.66 3.98 11 5 C7.37 5 3.74 5 0 5 C0 3.35 0 1.7 0 0 Z " fill="#4D623B" transform="translate(0,54)"/>
<path d="M0 0 C1.60031344 3.20062687 0.03173691 5.72271806 -1 9 C-1.66 9 -2.32 9 -3 9 C-3.33 11.64 -3.66 14.28 -4 17 C-4.99 16.67 -5.98 16.34 -7 16 C-6.44353679 10.57448372 -4.64754321 5.74559632 -2 1 C-1.34 0.67 -0.68 0.34 0 0 Z " fill="#8A7D66" transform="translate(59,15)"/>
<path d="M0 0 C1.32 0 2.64 0 4 0 C3.67 1.65 3.34 3.3 3 5 C3.99 5 4.98 5 6 5 C6 6.32 6 7.64 6 9 C4.35 9.66 2.7 10.32 1 11 C0.4254048 7.26513121 0 3.78706732 0 0 Z " fill="#B6893D" transform="translate(26,20)"/>
<path d="M0 0 C0.144375 0.639375 0.28875 1.27875 0.4375 1.9375 C0.81007181 3.97545146 0.81007181 3.97545146 2 5 C2.33 3.68 2.66 2.36 3 1 C3.08886184 4.19902639 2.91058531 6.92677456 2 10 C1.34 10 0.68 10 0 10 C0 10.66 0 11.32 0 12 C-0.66 12 -1.32 12 -2 12 C-2.33 12.66 -2.66 13.32 -3 14 C-2.88512252 12.41590006 -2.75765492 10.83271037 -2.625 9.25 C-2.55539063 8.36828125 -2.48578125 7.4865625 -2.4140625 6.578125 C-2.00149945 4.00933618 -1.28839043 2.24158985 0 0 Z " fill="#B3A9A1" transform="translate(64,9)"/>
<path d="M0 0 C0.66 4.29 1.32 8.58 2 13 C1.01 13.495 1.01 13.495 0 14 C-0.64690922 12.3962669 -1.29248764 10.79199694 -1.9375 9.1875 C-2.29714844 8.29417969 -2.65679687 7.40085937 -3.02734375 6.48046875 C-3.73613486 4.6729091 -4.3860247 2.84192591 -5 1 C-3 0 -3 0 0 0 Z " fill="#401725" transform="translate(37,38)"/>
<path d="M0 0 C0.66 0 1.32 0 2 0 C2 0.66 2 1.32 2 2 C3.98 1.34 5.96 0.68 8 0 C8 0.66 8 1.32 8 2 C8.66 2.33 9.32 2.66 10 3 C9.34 3 8.68 3 8 3 C8 3.66 8 4.32 8 5 C6.68 5 5.36 5 4 5 C3.67 5.99 3.34 6.98 3 8 C2.34 7.67 1.68 7.34 1 7 C1.33 6.34 1.66 5.68 2 5 C1.34 5 0.68 5 0 5 C0 3.35 0 1.7 0 0 Z " fill="#7C9A1B" transform="translate(8,13)"/>
<path d="M0 0 C0.66 0.33 1.32 0.66 2 1 C1.38388165 5.31931387 0.35761422 9.25208775 -1.0625 13.375 C-1.42472656 14.43460938 -1.78695312 15.49421875 -2.16015625 16.5859375 C-2.43730469 17.38257812 -2.71445312 18.17921875 -3 19 C-3.66 18.67 -4.32 18.34 -5 18 C-5 17.01 -5 16.02 -5 15 C-4.34 15 -3.68 15 -3 15 C-3.061875 14.01 -3.12375 13.02 -3.1875 12 C-3.21491645 7.53111789 -1.7208227 4.08695392 0 0 Z " fill="#7C6F55" transform="translate(57,4)"/>
<path d="M0 0 C1.32 0.66 2.64 1.32 4 2 C4 4.64 4 7.28 4 10 C3.01 10 2.02 10 1 10 C1 8.68 1 7.36 1 6 C0.01 5.67 -0.98 5.34 -2 5 C-1.34 3.35 -0.68 1.7 0 0 Z " fill="#B3BFB2" transform="translate(25,49)"/>
<path d="M0 0 C2.72426311 2.35277269 3.8141763 4.62496331 5 8 C5.66 7.67 6.32 7.34 7 7 C6.67 8.65 6.34 10.3 6 12 C4.68 12 3.36 12 2 12 C1.66269158 10.56342755 1.33030409 9.12569907 1 7.6875 C0.814375 6.88699219 0.62875 6.08648437 0.4375 5.26171875 C0 3 0 3 0 0 Z " fill="#9B8D7C" transform="translate(37,8)"/>
<path d="M0 0 C1.70806483 5.12419449 2.1189783 8.65377036 1 14 C0.34 14 -0.32 14 -1 14 C-2.6491828 9.74684436 -3.49974625 7.3351775 -1.625 3.0625 C-1.08875 2.051875 -0.5525 1.04125 0 0 Z " fill="#666058" transform="translate(56,45)"/>
<path d="M0 0 C1.32 0.33 2.64 0.66 4 1 C1.33333333 3.66666667 -1.33333333 6.33333333 -4 9 C-4.66 8.67 -5.32 8.34 -6 8 C-6.625 5.9375 -6.625 5.9375 -7 4 C-6.34 4 -5.68 4 -5 4 C-5 3.34 -5 2.68 -5 2 C-3.35 2.33 -1.7 2.66 0 3 C0 2.01 0 1.02 0 0 Z " fill="#9BB712" transform="translate(20,20)"/>
<path d="M0 0 C1.32 0.33 2.64 0.66 4 1 C3.525625 2.155 3.05125 3.31 2.5625 4.5 C0.97791232 8.68570332 0.39710805 12.55238986 0 17 C-0.99 16.67 -1.98 16.34 -3 16 C-2.86722656 15.34773437 -2.73445313 14.69546875 -2.59765625 14.0234375 C-1.65517178 9.3591713 -0.74231297 4.70131546 0 0 Z " fill="#ABA193" transform="translate(61,0)"/>
<path d="M0 0 C0.61875 0.350625 1.2375 0.70125 1.875 1.0625 C2.57625 1.371875 3.2775 1.68125 4 2 C4.66 1.67 5.32 1.34 6 1 C6.33 3.31 6.66 5.62 7 8 C4.0625 7.25 4.0625 7.25 1 6 C0.04582732 3.81903388 0 2.35817766 0 0 Z " fill="#A0B445" transform="translate(7,3)"/>
<path d="M0 0 C0.99 0 1.98 0 3 0 C4.75 2.375 4.75 2.375 6 5 C5.67 5.66 5.34 6.32 5 7 C4.67 6.67 4.34 6.34 4 6 C3.34 7.32 2.68 8.64 2 10 C1.01 8.68 0.02 7.36 -1 6 C-0.34 6 0.32 6 1 6 C0.67 4.02 0.34 2.04 0 0 Z " fill="#C6D0D3" transform="translate(13,47)"/>
<path d="M0 0 C2.97 0.495 2.97 0.495 6 1 C5.01 1.495 5.01 1.495 4 2 C5.32 2 6.64 2 8 2 C8.33 2.66 8.66 3.32 9 4 C8.01 4 7.02 4 6 4 C6 4.66 6 5.32 6 6 C4.35 6.33 2.7 6.66 1 7 C0.67 4.69 0.34 2.38 0 0 Z " fill="#384F04" transform="translate(0,12)"/>
<path d="M0 0 C0.99 0 1.98 0 3 0 C2.125 5.875 2.125 5.875 1 7 C0.95919217 8.99958364 0.95745644 11.00045254 1 13 C-1.12300942 9.46165096 -1.69690596 6.09176955 -2 2 C-1.34 1.34 -0.68 0.68 0 0 Z " fill="#E8EEF6" transform="translate(20,32)"/>
<path d="M0 0 C0 2.64 0 5.28 0 8 C-3.73639216 6.75453595 -4.18756513 5.36595047 -6 2 C-2.25 0 -2.25 0 0 0 Z " fill="#82A017" transform="translate(23,11)"/>
<path d="M0 0 C2.475 0.495 2.475 0.495 5 1 C5.33 2.65 5.66 4.3 6 6 C5.01 6 4.02 6 3 6 C2.01 6.495 2.01 6.495 1 7 C0.67 4.69 0.34 2.38 0 0 Z " fill="#465608" transform="translate(0,0)"/>
<path d="M0 0 C0.33 0 0.66 0 1 0 C1.05447047 1.41623216 1.09300508 2.83308191 1.125 4.25 C1.14820313 5.03890625 1.17140625 5.8278125 1.1953125 6.640625 C0.9828378 9.20731941 0.28654105 10.7916067 -1 13 C-1.99 13 -2.98 13 -4 13 C-4.33 12.01 -4.66 11.02 -5 10 C-4.34 9.34 -3.68 8.68 -3 8 C-2.01 8 -1.02 8 0 8 C-0.185625 7.236875 -0.37125 6.47375 -0.5625 5.6875 C-1 3 -1 3 0 0 Z " fill="#D19567" transform="translate(32,21)"/>
<path d="M0 0 C0.99 0.33 1.98 0.66 3 1 C3.73046875 2.84765625 3.73046875 2.84765625 4.1875 5.0625 C4.34605469 5.79597656 4.50460938 6.52945312 4.66796875 7.28515625 C4.83232422 8.13400391 4.83232422 8.13400391 5 9 C2.5625 8.625 2.5625 8.625 0 8 C-0.33 7.34 -0.66 6.68 -1 6 C-0.34 6 0.32 6 1 6 C0.67 4.02 0.34 2.04 0 0 Z " fill="#686851" transform="translate(38,23)"/>
<path d="M0 0 C1.98 0.99 1.98 0.99 4 2 C3.74438677 4.3431213 3.40729228 6.67843403 3 9 C2.01 9.495 2.01 9.495 1 10 C-0.60725635 6.78548731 -0.05748185 3.56387464 0 0 Z " fill="#DBE59D" transform="translate(45,16)"/>
<path d="M0 0 C0.66 0.33 1.32 0.66 2 1 C4.00800456 0.71887936 6.01014051 0.38932033 8 0 C8.33 1.65 8.66 3.3 9 5 C7.02 4.34 5.04 3.68 3 3 C2.67 3.99 2.34 4.98 2 6 C1.01 4.68 0.02 3.36 -1 2 C-0.67 1.34 -0.34 0.68 0 0 Z " fill="#564232" transform="translate(29,8)"/>
<path d="M0 0 C1.65 1.65 3.3 3.3 5 5 C2.69 5.66 0.38 6.32 -2 7 C-1.42415568 4.61435923 -0.77772405 2.33317216 0 0 Z " fill="#AD9B86" transform="translate(32,3)"/>
<path d="M0 0 C2.64 0 5.28 0 8 0 C8 0.99 8 1.98 8 3 C5.36 3 2.72 3 0 3 C0 2.01 0 1.02 0 0 Z " fill="#E1F351" transform="translate(59,56)"/>
<path d="M0 0 C0.33 0 0.66 0 1 0 C1.33 1.65 1.66 3.3 2 5 C2.33 4.34 2.66 3.68 3 3 C3.99 3 4.98 3 6 3 C5.34 4.65 4.68 6.3 4 8 C4.66 8.33 5.32 8.66 6 9 C3.03 8.505 3.03 8.505 0 8 C0 5.36 0 2.72 0 0 Z " fill="#C9CAB9" transform="translate(59,31)"/>
<path d="M0 0 C2.5 1.375 2.5 1.375 5 3 C5 3.66 5 4.32 5 5 C4.01 5.33 3.02 5.66 2 6 C2 7.65 2 9.3 2 11 C1.34 10.67 0.68 10.34 0 10 C0 6.7 0 3.4 0 0 Z " fill="#7C6F4A" transform="translate(0,33)"/>
<path d="M0 0 C0.66 1.32 1.32 2.64 2 4 C0.35 4.33 -1.3 4.66 -3 5 C-3 5.99 -3 6.98 -3 8 C-3.99 7.01 -4.98 6.02 -6 5 C-5.67 4.01 -5.34 3.02 -5 2 C-3.68 2 -2.36 2 -1 2 C-0.67 1.34 -0.34 0.68 0 0 Z " fill="#B4AB61" transform="translate(6,28)"/>
<path d="M0 0 C0.99 0 1.98 0 3 0 C2.67 3.3 2.34 6.6 2 10 C1.34 10 0.68 10 0 10 C0 9.01 0 8.02 0 7 C-0.66 6.67 -1.32 6.34 -2 6 C-1.34 4.02 -0.68 2.04 0 0 Z " fill="#F4D2B8" transform="translate(33,25)"/>
<path d="M0 0 C0.66 0.33 1.32 0.66 2 1 C1.39816251 3.02045442 0.72693904 5.02111039 0 7 C-0.99 7.495 -0.99 7.495 -2 8 C-2 7.34 -2 6.68 -2 6 C-2.66 5.67 -3.32 5.34 -4 5 C-3.67 4.01 -3.34 3.02 -3 2 C-2.01 2 -1.02 2 0 2 C0 1.34 0 0.68 0 0 Z " fill="#5F611F" transform="translate(6,16)"/>
<path d="M0 0 C0 1.65 0 3.3 0 5 C-1.32 5.33 -2.64 5.66 -4 6 C-4.33 4.35 -4.66 2.7 -5 1 C-3 0 -3 0 0 0 Z " fill="#6B764A" transform="translate(46,7)"/>
<path d="M0 0 C0 3.13751221 -0.35179805 4.39757586 -2 7 C-2.99 7.33 -3.98 7.66 -5 8 C-5.33 6.68 -5.66 5.36 -6 4 C-4.02 2.68 -2.04 1.36 0 0 Z " fill="#E6E873" transform="translate(23,22)"/>
<path d="M0 0 C0.66 0.33 1.32 0.66 2 1 C1.01 2.485 1.01 2.485 0 4 C0.33 4.33 0.66 4.66 1 5 C1.04063832 6.66617115 1.042721 8.33388095 1 10 C-1.5722047 8.71389765 -2.00974907 7.66606019 -3 5 C-2.75 2.8125 -2.75 2.8125 -2 1 C-1.34 0.67 -0.68 0.34 0 0 Z " fill="#3A2B12" transform="translate(29,6)"/>
<path d="M0 0 C0.33 0 0.66 0 1 0 C1.04898437 0.60328125 1.09796875 1.2065625 1.1484375 1.828125 C1.22320312 2.62734375 1.29796875 3.4265625 1.375 4.25 C1.44460938 5.03890625 1.51421875 5.8278125 1.5859375 6.640625 C2.01507113 9.085877 2.78600638 10.84836903 4 13 C2.68 12.67 1.36 12.34 0 12 C0 8.04 0 4.08 0 0 Z " fill="#9EA874" transform="translate(10,46)"/>
<path d="M0 0 C1.65 0.33 3.3 0.66 5 1 C4.01 1.66 3.02 2.32 2 3 C0.7811879 6.55672179 0.7811879 6.55672179 0 10 C-0.33 10 -0.66 10 -1 10 C-0.67 6.7 -0.34 3.4 0 0 Z " fill="#939283" transform="translate(59,39)"/>
<path d="M0 0 C1.65 0 3.3 0 5 0 C3.81323934 4.10801767 3.10551666 5.89448334 0 9 C0 6.03 0 3.06 0 0 Z " fill="#B6C2B5" transform="translate(15,32)"/>
<path d="M0 0 C2.31 0 4.62 0 7 0 C7.33 0.99 7.66 1.98 8 3 C5.36 2.67 2.72 2.34 0 2 C0 1.34 0 0.68 0 0 Z " fill="#40410C" transform="translate(4,39)"/>
<path d="M0 0 C0.99 0.495 0.99 0.495 2 1 C2.40729228 3.32156597 2.74438677 5.6568787 3 8 C2.01 8.66 1.02 9.32 0 10 C0 6.7 0 3.4 0 0 Z " fill="#7A7F32" transform="translate(0,16)"/>
<path d="M0 0 C0.66 0.33 1.32 0.66 2 1 C2 1.99 2 2.98 2 4 C1.34 4 0.68 4 0 4 C0 4.66 0 5.32 0 6 C-0.66 6 -1.32 6 -2 6 C-2.33 6.66 -2.66 7.32 -3 8 C-3.1875 5.125 -3.1875 5.125 -3 2 C-2.01 1.34 -1.02 0.68 0 0 Z " fill="#A99C90" transform="translate(64,15)"/>
<path d="M0 0 C0.33 0 0.66 0 1 0 C1.33 4.29 1.66 8.58 2 13 C1.01 13 0.02 13 -1 13 C-0.67 8.71 -0.34 4.42 0 0 Z " fill="#969C95" transform="translate(20,46)"/>
<path d="M0 0 C0.66 0 1.32 0 2 0 C2.73080266 1.97746603 3.39421747 3.98072489 4 6 C3.67 6.66 3.34 7.32 3 8 C3.99 8.33 4.98 8.66 6 9 C4.68 9 3.36 9 2 9 C1.34 6.03 0.68 3.06 0 0 Z " fill="#E3E6ED" transform="translate(45,50)"/>
<path d="M0 0 C2.29633824 3.44450737 2.54016485 5.93812283 3 10 C2.34 10 1.68 10 1 10 C-0.60725635 6.78548731 -0.05748185 3.56387464 0 0 Z " fill="#E2E7EC" transform="translate(37,33)"/>
<path d="M0 0 C2.4375 0.375 2.4375 0.375 5 1 C5.33 1.66 5.66 2.32 6 3 C5.67 3.66 5.34 4.32 5 5 C3.68 4.67 2.36 4.34 1 4 C0.67 2.68 0.34 1.36 0 0 Z " fill="#ABA94C" transform="translate(8,25)"/>
<path d="M0 0 C1.9375 0.3125 1.9375 0.3125 4 1 C4.33 1.99 4.66 2.98 5 4 C4.34 4.66 3.68 5.32 3 6 C2.01 5.34 1.02 4.68 0 4 C0 2.68 0 1.36 0 0 Z " fill="#EED4CB" transform="translate(33,11)"/>
<path d="M0 0 C1.98 0.495 1.98 0.495 4 1 C3.67 2.65 3.34 4.3 3 6 C1.68 5.34 0.36 4.68 -1 4 C-0.67 2.68 -0.34 1.36 0 0 Z " fill="#594B37" transform="translate(58,0)"/>
<path d="M0 0 C0.66 0 1.32 0 2 0 C2.33 2.31 2.66 4.62 3 7 C1.68 6.67 0.36 6.34 -1 6 C-0.67 4.02 -0.34 2.04 0 0 Z " fill="#9DA26C" transform="translate(64,24)"/>
<path d="M0 0 C1.43088528 2.86177057 0.59991697 4.93375773 0 8 C-0.99 7.67 -1.98 7.34 -3 7 C-2.625 4.0625 -2.625 4.0625 -2 1 C-1.34 0.67 -0.68 0.34 0 0 Z " fill="#786D56" transform="translate(55,24)"/>
<path d="M0 0 C3 2 3 2 3.6875 4.125 C3.790625 4.74375 3.89375 5.3625 4 6 C3.01 6.495 3.01 6.495 2 7 C1.01 6.67 0.02 6.34 -1 6 C-0.67 4.02 -0.34 2.04 0 0 Z " fill="#E5B5A2" transform="translate(34,19)"/>
<path d="M0 0 C1.98 0.66 3.96 1.32 6 2 C5.67 3.32 5.34 4.64 5 6 C4.34 6 3.68 6 3 6 C0 2.53846154 0 2.53846154 0 0 Z " fill="#625D30" transform="translate(48,21)"/>
<path d="M0 0 C0.99 0.99 1.98 1.98 3 3 C2.01 4.485 2.01 4.485 1 6 C-0.32 5.34 -1.64 4.68 -3 4 C-3 3.34 -3 2.68 -3 2 C-2.01 2 -1.02 2 0 2 C0 1.34 0 0.68 0 0 Z " fill="#648306" transform="translate(22,6)"/>
<path d="M0 0 C0.99 0 1.98 0 3 0 C3 0.66 3 1.32 3 2 C3.99 2.33 4.98 2.66 6 3 C5.34 4.32 4.68 5.64 4 7 C3.34 6.67 2.68 6.34 2 6 C2 5.01 2 4.02 2 3 C1.34 2.67 0.68 2.34 0 2 C0 1.34 0 0.68 0 0 Z " fill="#7B9C13" transform="translate(47,3)"/>
<path d="M0 0 C0.66 0 1.32 0 2 0 C1.67 2.31 1.34 4.62 1 7 C-0.32 5.68 -1.64 4.36 -3 3 C-2.01 3 -1.02 3 0 3 C0 2.01 0 1.02 0 0 Z " fill="#6F8416" transform="translate(36,0)"/>
<path d="M0 0 C1.32 0 2.64 0 4 0 C3.67 1.98 3.34 3.96 3 6 C2.01 5.67 1.02 5.34 0 5 C-0.75 3 -0.75 3 -1 1 C-0.67 0.67 -0.34 0.34 0 0 Z " fill="#3B3517" transform="translate(54,0)"/>
<path d="M0 0 C1.32 0 2.64 0 4 0 C3.67 1.65 3.34 3.3 3 5 C2.01 4.67 1.02 4.34 0 4 C0 2.68 0 1.36 0 0 Z " fill="#F6F2EA" transform="translate(0,50)"/>
<path d="M0 0 C1.61949011 2.57213134 2.04408751 3.67669159 1.625 6.75 C1.41875 7.4925 1.2125 8.235 1 9 C0.01 8.34 -0.98 7.68 -2 7 C-1.67 6.01 -1.34 5.02 -1 4 C-1.66 3.67 -2.32 3.34 -3 3 C-2.01 3 -1.02 3 0 3 C0 2.01 0 1.02 0 0 Z " fill="#BAC0B4" transform="translate(26,29)"/>
<path d="M0 0 C1.65 1.32 3.3 2.64 5 4 C3.35 4.66 1.7 5.32 0 6 C-0.38218767 4.34385343 -0.71395102 2.67542976 -1 1 C-0.67 0.67 -0.34 0.34 0 0 Z " fill="#9D7628" transform="translate(27,25)"/>
<path d="M0 0 C1.98 0 3.96 0 6 0 C6.33 0.66 6.66 1.32 7 2 C6.01 2 5.02 2 4 2 C3.67 2.99 3.34 3.98 3 5 C2.34 4.67 1.68 4.34 1 4 C1.33 3.34 1.66 2.68 2 2 C1.34 2 0.68 2 0 2 C0 1.34 0 0.68 0 0 Z " fill="#B9C359" transform="translate(8,16)"/>
<path d="M0 0 C0.33 1.32 0.66 2.64 1 4 C-0.65 4.33 -2.3 4.66 -4 5 C-3.6875 3.0625 -3.6875 3.0625 -3 1 C-2.01 0.67 -1.02 0.34 0 0 Z " fill="#A7A36B" transform="translate(43,15)"/>
<path d="M0 0 C0.103125 0.639375 0.20625 1.27875 0.3125 1.9375 C0.539375 2.618125 0.76625 3.29875 1 4 C1.99 4.33 2.98 4.66 4 5 C3.67 5.66 3.34 6.32 3 7 C2.34 7 1.68 7 1 7 C1 6.34 1 5.68 1 5 C0.01 5 -0.98 5 -2 5 C-1.34 3.35 -0.68 1.7 0 0 Z " fill="#BF8F72" transform="translate(32,11)"/>
</svg>
