<?xml version="1.0" encoding="UTF-8"?>
<svg version="1.1" xmlns="http://www.w3.org/2000/svg" width="512" height="512">
<path d="M0 0 C2.8611068 2.00494227 5.49125777 4.07706307 8.0625 6.4453125 C8.74699219 6.12304688 9.43148437 5.80078125 10.13671875 5.46875 C16.61116453 3.2039906 25.16143103 3.13645645 31.5 5.9453125 C37.36654545 9.49047222 41.97197003 14.92803598 44.0625 21.4453125 C44.27494272 24.31828793 44.39024323 27.09197431 44.3984375 29.96484375 C44.4084227 31.19094612 44.4084227 31.19094612 44.41860962 32.44181824 C44.42870878 34.16732544 44.43342749 35.89287148 44.43310547 37.6184082 C44.43746886 40.2391099 44.4737883 42.85811259 44.51171875 45.47851562 C44.51758973 47.16145263 44.52155724 48.84439756 44.5234375 50.52734375 C44.53780853 51.30157181 44.55217957 52.07579987 44.56698608 52.87348938 C44.51206662 59.5142952 42.48769545 64.67779324 38.09765625 69.6875 C31.87546393 74.83775028 28.27246602 76.53153151 20.0625 76.4453125 C19.72941494 86.65449174 20.46649325 93.88756246 27.296875 102.03515625 C28.23020685 103.01423321 29.1732023 103.98417714 30.125 104.9453125 C30.60759277 105.44691895 31.09018555 105.94852539 31.58740234 106.46533203 C40.49672361 115.35745937 49.54572507 117.44279609 61.91744995 117.47338867 C62.79031647 117.46412354 63.66318298 117.4548584 64.5625 117.4453125 C65.41449982 117.44442627 66.26649963 117.44354004 67.14431763 117.44262695 C78.55262024 117.28798458 86.78450401 114.96642861 96.17382812 108.44140625 C101.00834835 105.10071682 105.35121564 104.78809825 111.0625 105.4453125 C115.58708469 106.85672484 118.38818664 108.33823087 120.89453125 112.453125 C124.37764848 116.70239682 129.153676 116.94338512 134.36083984 117.49633789 C135.73994587 117.57439545 137.11977625 117.64045998 138.5 117.6953125 C139.19748352 117.72833466 139.89496704 117.76135681 140.61358643 117.79537964 C151.91529691 118.05951652 158.73796874 114.47905227 166.87467957 106.79727173 C172.772233 100.93655915 178.280768 94.70805556 183.58935547 88.31274414 C186.8081952 84.58073302 186.8081952 84.58073302 190.26953125 84.20703125 C197.34414844 84.00550542 197.34414844 84.00550542 201.125 86.3203125 C203.81468733 89.27029215 204.31973891 91.14972085 204.5625 95.0703125 C204.6346875 95.88757813 204.706875 96.70484375 204.78125 97.546875 C203.61212728 102.26148945 200.3802821 105.00921425 197.0625 108.4453125 C195.71309326 109.87399658 195.71309326 109.87399658 194.33642578 111.33154297 C191.75737899 114.0501103 189.14261764 116.73131985 186.51245117 119.40039062 C185.42339725 120.51104052 184.34064922 121.62791001 183.2644043 122.75097656 C175.6153432 130.72753821 167.44322464 138.5081115 156.0625 140.4453125 C153.7292107 140.45964767 151.39578218 140.46076295 149.0625 140.4453125 C149.35127518 141.62102814 149.64005035 142.79674377 149.93757629 144.00808716 C152.71695881 155.32483341 155.49482095 166.64195202 158.27135181 177.95939827 C159.69736014 183.77177271 161.12382701 189.58403365 162.55151367 195.39599609 C168.28958278 218.75685631 174.01777436 242.12037081 179.64999962 265.50701523 C180.13726885 267.52792612 180.62604589 269.54847412 181.11640358 271.56863785 C181.78864538 274.34012681 182.45507529 277.11294794 183.11987305 279.88623047 C183.41793256 281.10776888 183.41793256 281.10776888 183.72201347 282.35398483 C184.55232388 285.84365648 185.0625 288.83650223 185.0625 292.4453125 C186.5784375 292.39890625 186.5784375 292.39890625 188.125 292.3515625 C206.20903739 292.78213482 221.94405283 302.75490322 234.0625 315.4453125 C248.71916875 330.9078462 252.91760576 349.8171635 252.40234375 370.5859375 C251.54541303 389.65188362 242.70975326 405.55101115 229.0625 418.4453125 C225.81704298 421.24013197 222.50917693 423.90329481 219.0625 426.4453125 C219.3925 428.4253125 219.7225 430.4053125 220.0625 432.4453125 C220.0625 441.6853125 220.0625 450.9253125 220.0625 460.4453125 C98.6225 460.4453125 -22.8175 460.4453125 -147.9375 460.4453125 C-147.9375 452.5253125 -147.9375 444.6053125 -147.9375 436.4453125 C-140.0175 436.4453125 -132.0975 436.4453125 -123.9375 436.4453125 C-123.85028658 430.90726055 -123.7943116 425.38615087 -123.81542969 419.84985352 C-123.81349307 417.97116884 -123.79394078 416.092411 -123.75585938 414.21411133 C-123.23162914 403.21283964 -123.23162914 403.21283964 -127.10522461 393.3034668 C-129.60707045 391.07443289 -132.14842699 389.29010476 -134.9375 387.4453125 C-146.40695433 375.38578978 -148.43097895 361.85600248 -148.2109375 345.95703125 C-147.73165827 331.87998351 -140.5338376 320.06947444 -130.44921875 310.515625 C-115.882832 298.50911648 -104.17469472 298.4453125 -84.9375 298.4453125 C-84.6075 283.2653125 -84.2775 268.0853125 -83.9375 252.4453125 C-94.4975 252.4453125 -105.0575 252.4453125 -115.9375 252.4453125 C-115.9375 241.8853125 -115.9375 231.3253125 -115.9375 220.4453125 C-102.7375 220.1153125 -89.5375 219.7853125 -75.9375 219.4453125 C-77.9175 218.1253125 -79.8975 216.8053125 -81.9375 215.4453125 C-91.5441932 208.49578976 -97.40744487 197.93647291 -99.9375 186.4453125 C-101.30703434 170.19980173 -99.27049364 157.41409797 -88.9375 144.4453125 C-85.61274775 140.87334749 -82.14935522 137.47128178 -78.62833214 134.09404182 C-76.9078329 132.4406983 -75.20041866 130.77480034 -73.49604797 129.10484314 C-68.65618323 124.36477942 -63.80366619 119.63825791 -58.9206543 114.94262695 C-55.91690467 112.05236923 -52.93600016 109.14012904 -49.96814919 106.21304131 C-48.8421771 105.11105963 -47.70796414 104.01742766 -46.56519127 102.93287849 C-40.48575891 97.15823633 -35.78622694 92.57957028 -35.14778137 83.75584412 C-34.70497195 78.89033861 -31.48093199 75.79146281 -28 72.6953125 C-23.82642167 69.62901005 -21.26305298 68.50945216 -16.0625 68.2578125 C-11.71019187 67.72332752 -9.37697823 66.05613115 -6.38183594 62.91235352 C-3.30540658 57.65756672 -4.23556228 51.4031343 -4.5 45.5078125 C-4.53516184 44.14265822 -4.56709233 42.77741667 -4.59570312 41.41210938 C-4.67793472 38.08760339 -4.79283196 34.76759019 -4.9375 31.4453125 C-5.45119141 31.97930664 -5.96488281 32.51330078 -6.49414062 33.06347656 C-17.72535274 44.55065583 -31.02098106 50.37224915 -47.125 50.8828125 C-58.61005431 50.30055896 -69.1623974 46.48682072 -79.75 42.2578125 C-81.52213867 41.56268555 -81.52213867 41.56268555 -83.33007812 40.85351562 C-86.20250221 39.72547864 -89.07142685 38.589367 -91.9375 37.4453125 C-91.9375 36.7853125 -91.9375 36.1253125 -91.9375 35.4453125 C-91.13119141 35.28450195 -90.32488281 35.12369141 -89.49414062 34.95800781 C-86.4655141 34.34828145 -83.43921348 33.72828701 -80.4140625 33.1015625 C-78.47554621 32.70313227 -76.53465945 32.31629141 -74.59375 31.9296875 C-63.63555544 29.6467303 -54.28362615 26.86210609 -47.69921875 17.140625 C-47.00284932 15.95341813 -46.31155412 14.76322238 -45.625 13.5703125 C-41.92235809 7.50965157 -38.15920955 3.0971855 -31.9375 -0.5546875 C-31.3496875 -0.91046875 -30.761875 -1.26625 -30.15625 -1.6328125 C-21.18250463 -5.96225106 -8.36487945 -4.94545238 0 0 Z M105.26953125 142.45703125 C103.43425529 142.88757732 101.59896841 143.31807682 99.76367188 143.74853516 C98.80130615 143.97502747 97.83894043 144.20151978 96.84741211 144.43487549 C93.87259559 145.13337707 90.89652717 145.8262534 87.91992188 146.51708984 C75.82938458 149.32175972 75.82938458 149.32175972 63.76171875 152.22265625 C47.34863438 156.16437595 30.56921318 158.97505171 15.40234375 149.84375 C13.24009626 148.43344329 11.13643261 146.98155888 9.0625 145.4453125 C6.07061074 146.78931368 3.9827238 148.27628166 1.67089844 150.59399414 C1.0305365 151.23127945 0.39017456 151.86856476 -0.26959229 152.52516174 C-0.94890808 153.21166306 -1.62822388 153.89816437 -2.328125 154.60546875 C-3.03273865 155.31054062 -3.73735229 156.01561249 -4.46331787 156.74205017 C-5.94829705 158.23004609 -7.43084937 159.72046737 -8.91113281 161.21313477 C-11.18760911 163.50792249 -13.47204124 165.79455244 -15.7578125 168.08007812 C-17.19839064 169.52556946 -18.63851096 170.97151723 -20.078125 172.41796875 C-20.76553772 173.10649429 -21.45295044 173.79501984 -22.16119385 174.50440979 C-22.78894714 175.13854294 -23.41670044 175.77267609 -24.06347656 176.42602539 C-24.61988831 176.98624893 -25.17630005 177.54647247 -25.74957275 178.12367249 C-27.04891385 179.27309221 -27.04891385 179.27309221 -26.9375 180.4453125 C-26.19771408 180.44895813 -25.45792816 180.45260376 -24.69572449 180.45635986 C-17.67928004 180.49443221 -10.66329635 180.55149984 -3.64719677 180.62921524 C-0.04122954 180.6685061 3.56450023 180.70078344 7.1706543 180.71630859 C10.65933452 180.73159816 14.14736107 180.76625569 17.63574791 180.81362152 C19.59567134 180.83539471 21.5557799 180.83777561 23.51582336 180.83966064 C35.53608565 181.03387261 45.36396345 183.85572637 54.0625 192.4453125 C60.1307953 199.67301334 63.56921601 207.74782916 66.92578125 216.4765625 C67.44777041 217.80320626 67.97108602 219.12932878 68.49565125 220.45495605 C69.85907154 223.90866515 71.20765602 227.36795379 72.55206299 230.82910156 C74.71715276 236.39670465 76.90329394 241.95604392 79.09294701 247.51402283 C79.8527488 249.44972954 80.60498878 251.38824644 81.35627747 253.32727051 C81.81403061 254.49608765 82.27178375 255.66490479 82.7434082 256.86914062 C83.34461235 258.41607605 83.34461235 258.41607605 83.95796204 259.9942627 C84.93934165 262.55825926 84.93934165 262.55825926 87.0625 264.4453125 C87.65376678 264.23468674 88.24503357 264.02406097 88.85421753 263.80705261 C95.45199045 261.62131373 101.39820269 260.97889206 108.3203125 260.93359375 C109.34937714 260.91564255 110.37844177 260.89769135 111.43869019 260.87919617 C114.68825319 260.82551413 117.93767294 260.79133327 121.1875 260.7578125 C123.40626976 260.72460223 125.62502071 260.69010921 127.84375 260.65429688 C133.24987766 260.56981243 138.65602231 260.5024384 144.0625 260.4453125 C143.46132282 253.84288211 142.29370052 247.62877172 140.68579102 241.203125 C140.44501831 240.2214032 140.20424561 239.2396814 139.95617676 238.22821045 C139.16492605 235.00756975 138.3656839 231.78896959 137.56640625 228.5703125 C137.0115933 226.31800091 136.45731609 224.06555729 135.90354919 221.81298828 C134.44778766 215.89695934 132.98537403 209.98259547 131.5213623 204.06860352 C129.74644453 196.89400058 127.97864363 189.71764162 126.21056271 182.54135132 C124.83431821 176.95555702 123.45678257 171.37009359 122.0750885 165.78564453 C121.82047348 164.75497864 121.56585846 163.72431274 121.30352783 162.66241455 C120.83210385 160.75412815 120.35991725 158.84602989 119.88676453 156.93817139 C118.53379467 151.45612319 117.26782865 145.9617666 116.0625 140.4453125 C112.39713288 140.4453125 108.82463108 141.61562025 105.26953125 142.45703125 Z M-51.9375 252.4453125 C-51.9375 270.2653125 -51.9375 288.0853125 -51.9375 306.4453125 C-46.16808173 308.74243256 -46.16808173 308.74243256 -40.9375 307.4453125 C-38.7782808 305.39128803 -37.03309059 303.0767576 -35.25 300.6953125 C-34.46181885 299.67594604 -34.46181885 299.67594604 -33.65771484 298.63598633 C-32.07246244 296.58119817 -30.50442122 294.5140946 -28.9375 292.4453125 C-28.10176611 291.3595165 -27.26464628 290.27478503 -26.42578125 289.19140625 C-24.83613883 287.13406738 -23.25158249 285.07278962 -21.671875 283.0078125 C-18.24336431 278.53039671 -14.77646798 274.08281313 -11.3125 269.6328125 C-10.68359863 268.82481201 -10.05469727 268.01681152 -9.40673828 267.18432617 C-7.91727351 265.27110226 -6.42754433 263.35808505 -4.9375 261.4453125 C-10.46231153 255.66474273 -16.04633805 252.18775826 -24.13833618 251.87759399 C-27.95483253 251.84617709 -31.74575364 251.94650836 -35.5625 252.0703125 C-40.96625 252.1940625 -46.37 252.3178125 -51.9375 252.4453125 Z M43.0625 268.4453125 C42.77117187 269.21875 42.47984375 269.9921875 42.1796875 270.7890625 C41.76976562 271.830625 41.35984375 272.8721875 40.9375 273.9453125 C40.54304688 274.96625 40.14859375 275.9871875 39.7421875 277.0390625 C36.13413033 284.35586681 30.68509772 290.1133049 24.9140625 295.7890625 C24.25667084 296.44362427 23.59927917 297.09818604 22.92196655 297.77258301 C20.84851329 299.83495983 18.7681716 301.89022095 16.6875 303.9453125 C15.26906711 305.35369937 13.85109402 306.76254948 12.43359375 308.171875 C8.98184876 311.60172623 5.52391335 315.02521998 2.0625 318.4453125 C4.33364988 320.71646238 5.41165072 320.95564838 8.48046875 321.68212891 C9.39481689 321.90220612 10.30916504 322.12228333 11.2512207 322.34902954 C12.24081787 322.57931854 13.23041504 322.80960754 14.25 323.046875 C15.77016724 323.4088649 15.77016724 323.4088649 17.32104492 323.77816772 C19.46551396 324.28743578 21.61080486 324.79325341 23.75683594 325.29589844 C27.05061049 326.06752716 30.34186879 326.8492076 33.6328125 327.6328125 C35.71340225 328.12558903 37.79412703 328.61779585 39.875 329.109375 C41.35939575 329.4608812 41.35939575 329.4608812 42.8737793 329.81948853 C43.78812744 330.03326141 44.70247559 330.2470343 45.64453125 330.46728516 C46.45124268 330.65666656 47.2579541 330.84604797 48.08911133 331.04116821 C50.05333093 331.51219012 50.05333093 331.51219012 52.0625 331.4453125 C52.06660889 330.74148438 52.07071777 330.03765625 52.07495117 329.3125 C52.10850566 326.02254945 52.17417554 322.73456392 52.25 319.4453125 C52.27392822 318.25010986 52.29785645 317.05490723 52.32250977 315.82348633 C52.57827985 308.75706084 53.48652701 303.47732369 56.5 297.1328125 C58.17140319 292.81309178 58.72105233 291.02783803 56.93701172 286.74072266 C53.3205271 280.22888153 48.99684459 274.03333141 44.0625 268.4453125 C43.7325 268.4453125 43.4025 268.4453125 43.0625 268.4453125 Z M91.82421875 304.2890625 C86.28271503 311.07156816 84.92399092 317.70142753 84.85717773 326.28613281 C84.84727814 327.07412262 84.83737854 327.86211243 84.82717896 328.67398071 C84.79551946 331.29043579 84.77072751 333.90690755 84.74609375 336.5234375 C84.72546734 338.36920577 84.70446963 340.21496993 84.68312073 342.06072998 C84.63910248 345.95126892 84.59823335 349.84182367 84.55981445 353.73242188 C84.51153545 358.6167809 84.45781103 363.5010577 84.40183926 368.38533401 C84.35823332 372.21598688 84.31667423 376.04665992 84.27574348 379.87734222 C84.25655534 381.67068604 84.23703946 383.4640264 84.21713066 385.25736237 C84.03121895 402.32136195 84.0625 419.37841876 84.0625 436.4453125 C111.7825 436.4453125 139.5025 436.4453125 168.0625 436.4453125 C168.0625 436.1153125 168.0625 435.7853125 168.0625 435.4453125 C167.15371094 435.249375 166.24492187 435.0534375 165.30859375 434.8515625 C146.14567585 430.29177075 131.06263219 420.77242878 119.80859375 404.32421875 C116.71423342 399.22233158 114.2318603 394.00049683 112.0625 388.4453125 C111.72089844 387.57132812 111.37929688 386.69734375 111.02734375 385.796875 C105.32760234 367.71676505 108.18012112 346.38649696 116.625 329.7578125 C124.76603763 314.8290325 137.66409307 304.39296682 153.0625 297.4453125 C153.0625 295.7953125 153.0625 294.1453125 153.0625 292.4453125 C147.97625111 292.39545483 142.89014803 292.35937864 137.80371094 292.33544922 C136.07744871 292.32546151 134.35120309 292.31186667 132.625 292.29443359 C116.87066174 292.139443 103.32339622 292.17990901 91.82421875 304.2890625 Z M-83.9375 404.4453125 C-94.07167708 419.82346764 -94.07167708 419.82346764 -98.9375 436.4453125 C-46.7975 436.4453125 5.3425 436.4453125 59.0625 436.4453125 C55.33721105 425.26944564 49.33085416 414.98202082 44.0625 404.4453125 C1.8225 404.4453125 -40.4175 404.4453125 -83.9375 404.4453125 Z " fill="#8098AB" transform="translate(203.9375,27.5546875)"/>
<path d="M0 0 C2.8611068 2.00494227 5.49125777 4.07706307 8.0625 6.4453125 C8.74699219 6.12304688 9.43148437 5.80078125 10.13671875 5.46875 C16.61116453 3.2039906 25.16143103 3.13645645 31.5 5.9453125 C37.36654545 9.49047222 41.97197003 14.92803598 44.0625 21.4453125 C44.27494272 24.31828793 44.39024323 27.09197431 44.3984375 29.96484375 C44.4084227 31.19094612 44.4084227 31.19094612 44.41860962 32.44181824 C44.42870878 34.16732544 44.43342749 35.89287148 44.43310547 37.6184082 C44.43746886 40.2391099 44.4737883 42.85811259 44.51171875 45.47851562 C44.51758973 47.16145263 44.52155724 48.84439756 44.5234375 50.52734375 C44.53780853 51.30157181 44.55217957 52.07579987 44.56698608 52.87348938 C44.51206662 59.5142952 42.48769545 64.67779324 38.09765625 69.6875 C31.87546393 74.83775028 28.27246602 76.53153151 20.0625 76.4453125 C19.72941494 86.65449174 20.46649325 93.88756246 27.296875 102.03515625 C28.23020685 103.01423321 29.1732023 103.98417714 30.125 104.9453125 C30.60759277 105.44691895 31.09018555 105.94852539 31.58740234 106.46533203 C40.49672361 115.35745937 49.54572507 117.44279609 61.91744995 117.47338867 C62.79031647 117.46412354 63.66318298 117.4548584 64.5625 117.4453125 C65.41449982 117.44442627 66.26649963 117.44354004 67.14431763 117.44262695 C78.55262024 117.28798458 86.78450401 114.96642861 96.17382812 108.44140625 C101.00834835 105.10071682 105.35121564 104.78809825 111.0625 105.4453125 C116.95926229 107.28476598 120.60173283 110.41146935 124.0625 115.4453125 C125.83846814 120.93466856 126.39879238 127.47193869 124.00390625 132.80078125 C117.6860965 141.92650645 107.40636931 143.6090014 97.16796875 145.8984375 C95.81237042 146.20627996 94.45684717 146.51445319 93.10139465 146.82293701 C90.2646069 147.46558565 87.42605837 148.09966563 84.58618164 148.72851562 C81.71167975 149.36612594 78.84100327 150.01779588 75.97290039 150.68359375 C32.05860774 160.87175035 32.05860774 160.87175035 15.40234375 150.84375 C13.24009626 149.43344329 11.13643261 147.98155888 9.0625 146.4453125 C6.10984888 147.77525633 4.03899784 149.22310566 1.76269531 151.51806641 C1.14235413 152.13855865 0.52201294 152.7590509 -0.11712646 153.39834595 C-0.77456848 154.06611053 -1.4320105 154.73387512 -2.109375 155.421875 C-2.7917926 156.1071225 -3.47421021 156.79237 -4.17730713 157.49838257 C-6.35211598 159.68437095 -8.51986072 161.87721679 -10.6875 164.0703125 C-12.1622999 165.55514505 -13.63755506 167.03952556 -15.11328125 168.5234375 C-18.72665448 172.1588416 -22.33370853 175.80041074 -25.9375 179.4453125 C-24.84661324 179.45078094 -24.84661324 179.45078094 -23.73368835 179.45635986 C-16.83500095 179.49443718 -9.93669531 179.5515108 -3.0383482 179.62921524 C0.50708512 179.66850073 4.05227712 179.70078062 7.59790039 179.71630859 C11.68675375 179.73453766 15.77470885 179.78457011 19.86328125 179.8359375 C21.11893387 179.83716614 22.37458649 179.83839478 23.66828918 179.83966064 C35.53225153 180.03454425 45.51721486 182.88529411 54.0625 191.4453125 C60.39593132 198.39788852 63.82481238 206.14117399 67.21484375 214.78125 C67.76422177 216.1517062 68.31474449 217.52170402 68.86634827 218.89126587 C70.01040076 221.74028938 71.14490536 224.59284967 72.27172852 227.44873047 C73.71625788 231.10933879 75.17819096 234.76267276 76.6463995 238.41383934 C77.77901226 241.23268929 78.90581817 244.05382819 80.03051949 246.87584305 C80.56816199 248.22466344 81.10683468 249.57307366 81.64655876 250.92106247 C82.39600468 252.79727321 83.13752659 254.67664335 83.87866211 256.55615234 C84.51317543 258.15757584 84.51317543 258.15757584 85.1605072 259.79135132 C86.0625 262.4453125 86.0625 262.4453125 86.0625 265.4453125 C83.68359375 267.05859375 83.68359375 267.05859375 80.5 268.7578125 C71.9999231 273.54658822 66.94263471 278.11833559 61.54296875 286.2734375 C60.0625 288.4453125 60.0625 288.4453125 58.0625 290.4453125 C53.22875616 283.88172633 48.5283319 277.26468151 44.0625 270.4453125 C43.41418716 271.83847435 43.41418716 271.83847435 42.7527771 273.25978088 C37.79157547 283.46228237 31.62387713 290.85801395 23.5390625 298.72265625 C22.34320131 299.91051026 21.14875962 301.09979484 19.95565796 302.29042053 C17.48009151 304.75387564 14.99375325 307.20564553 12.49755859 309.64819336 C9.29398367 312.78313201 6.11089164 315.93792005 2.93444252 319.10031796 C-0.10733658 322.1270289 -3.1586991 325.14399921 -6.2109375 328.16015625 C-6.79142223 328.73536451 -7.37190697 329.31057278 -7.96998215 329.90321159 C-9.60151314 331.51638516 -11.23969389 333.12245452 -12.88037109 334.72631836 C-13.81110443 335.64037949 -14.74183777 336.55444061 -15.70077515 337.49620056 C-17.9375 339.4453125 -17.9375 339.4453125 -19.9375 339.4453125 C-19.73068604 340.43337891 -19.52387207 341.42144531 -19.31079102 342.43945312 C-18.53786987 346.1363761 -17.76918055 349.83416877 -17.00170898 353.53222656 C-16.67016494 355.12686468 -16.33750276 356.72127078 -16.00366211 358.31542969 C-15.52156845 360.61852584 -15.04362007 362.9224509 -14.56640625 365.2265625 C-14.41845108 365.92898071 -14.27049591 366.63139893 -14.11805725 367.35510254 C-13.70071952 369.38146422 -13.31238402 371.41069553 -12.9375 373.4453125 C-12.79805466 374.15626572 -12.65860931 374.86721893 -12.51493835 375.59971619 C-11.6341545 380.84055959 -11.6341545 380.84055959 -13.0456543 383.65454102 C-13.61195557 384.20553467 -14.17825684 384.75652832 -14.76171875 385.32421875 C-15.37853516 385.93458984 -15.99535156 386.54496094 -16.63085938 387.17382812 C-17.61795898 388.08165039 -17.61795898 388.08165039 -18.625 389.0078125 C-19.26373047 389.64783203 -19.90246094 390.28785156 -20.56054688 390.94726562 C-24.11087726 394.35807941 -24.11087726 394.35807941 -25.9375 395.4453125 C-28.5290457 395.29629475 -29.58278959 394.80953258 -31.39453125 392.94921875 C-31.84183594 392.30855469 -32.28914063 391.66789062 -32.75 391.0078125 C-33.26175781 390.28658203 -33.77351563 389.56535156 -34.30078125 388.82226562 C-34.84089844 388.03787109 -35.38101563 387.25347656 -35.9375 386.4453125 C-36.50855469 385.63513672 -37.07960937 384.82496094 -37.66796875 383.99023438 C-39.43387951 381.48170552 -41.18573085 378.96372892 -42.9375 376.4453125 C-44.44778613 374.29852174 -45.96235692 372.15481141 -47.47753906 370.01147461 C-48.44967281 368.63569402 -49.42038045 367.2589046 -50.38964844 365.88110352 C-56.16170998 357.68036557 -62.04906542 349.56269445 -67.9375 341.4453125 C-66.44882905 338.31256434 -64.99706454 336.36282167 -62.4375 334.0078125 C-57.87072629 329.57413238 -54.13617805 324.67293865 -50.33203125 319.59375 C-48.745979 317.50833709 -47.09676057 315.46938526 -45.38671875 313.484375 C-43.25211626 310.83569759 -41.65254596 308.22572635 -40.0234375 305.25341797 C-38.01124518 301.90308157 -35.44659794 298.99296111 -32.9375 296.0078125 C-28.35210572 290.46471341 -23.91169259 284.847699 -19.625 279.0703125 C-15.18584412 273.08820836 -10.65256742 267.21433616 -5.9375 261.4453125 C-9.94658265 258.07209982 -14.15579191 255.33586117 -18.625 252.6328125 C-19.39320068 252.16560791 -20.16140137 251.69840332 -20.95288086 251.21704102 C-30.1135527 245.68151505 -39.40552827 240.37145745 -48.6875 235.04296875 C-54.67160665 231.60573416 -60.62473337 228.11865466 -66.56030273 224.59838867 C-70.02241817 222.55011228 -73.50976812 220.58140388 -77.0625 218.6953125 C-88.25187118 212.47660429 -95.0051328 202.49611522 -98.9375 190.4453125 C-102.15188196 179.1291496 -100.98740222 164.92532691 -95.9375 154.4453125 C-91.31385207 146.58352499 -85.15530197 140.35447886 -78.62833214 134.09404182 C-76.9078329 132.4406983 -75.20041866 130.77480034 -73.49604797 129.10484314 C-68.65618323 124.36477942 -63.80366619 119.63825791 -58.9206543 114.94262695 C-55.91690467 112.05236923 -52.93600016 109.14012904 -49.96814919 106.21304131 C-48.8421771 105.11105963 -47.70796414 104.01742766 -46.56519127 102.93287849 C-40.48575891 97.15823633 -35.78622694 92.57957028 -35.14778137 83.75584412 C-34.70497195 78.89033861 -31.48093199 75.79146281 -28 72.6953125 C-23.82642167 69.62901005 -21.26305298 68.50945216 -16.0625 68.2578125 C-11.71019187 67.72332752 -9.37697823 66.05613115 -6.38183594 62.91235352 C-3.30540658 57.65756672 -4.23556228 51.4031343 -4.5 45.5078125 C-4.53516184 44.14265822 -4.56709233 42.77741667 -4.59570312 41.41210938 C-4.67793472 38.08760339 -4.79283196 34.76759019 -4.9375 31.4453125 C-5.45119141 31.97930664 -5.96488281 32.51330078 -6.49414062 33.06347656 C-17.72535274 44.55065583 -31.02098106 50.37224915 -47.125 50.8828125 C-58.61005431 50.30055896 -69.1623974 46.48682072 -79.75 42.2578125 C-80.93142578 41.79439453 -82.11285156 41.33097656 -83.33007812 40.85351562 C-86.20250221 39.72547864 -89.07142685 38.589367 -91.9375 37.4453125 C-91.9375 36.7853125 -91.9375 36.1253125 -91.9375 35.4453125 C-90.72803711 35.20409668 -90.72803711 35.20409668 -89.49414062 34.95800781 C-86.4655141 34.34828145 -83.43921348 33.72828701 -80.4140625 33.1015625 C-78.47554621 32.70313227 -76.53465945 32.31629141 -74.59375 31.9296875 C-63.63555544 29.6467303 -54.28362615 26.86210609 -47.69921875 17.140625 C-47.00284932 15.95341813 -46.31155412 14.76322238 -45.625 13.5703125 C-41.92235809 7.50965157 -38.15920955 3.0971855 -31.9375 -0.5546875 C-31.3496875 -0.91046875 -30.761875 -1.26625 -30.15625 -1.6328125 C-21.18250463 -5.96225106 -8.36487945 -4.94545238 0 0 Z " fill="#FECDB5" transform="translate(203.9375,27.5546875)"/>
<path d="M0 0 C2.93423195 1.79646854 4.47205355 2.9441071 6 6 C6.34375 8.1015625 6.34375 8.1015625 6.5 10.625 C6.5721875 11.44226563 6.644375 12.25953125 6.71875 13.1015625 C5.54962728 17.81617695 2.3177821 20.56390175 -1 24 C-1.89960449 24.95245605 -2.79920898 25.90491211 -3.72607422 26.88623047 C-6.30512101 29.6047978 -8.91988236 32.28600735 -11.55004883 34.95507812 C-12.63910275 36.06572802 -13.72185078 37.18259751 -14.7980957 38.30566406 C-22.4471568 46.28222571 -30.61927536 54.062799 -42 56 C-44.3332893 56.01433517 -46.66671782 56.01545045 -49 56 C-48.71122482 57.17571564 -48.42244965 58.35143127 -48.12492371 59.56277466 C-45.34554119 70.87952091 -42.56767905 82.19663952 -39.79114819 93.51408577 C-38.36513986 99.32646021 -36.93867299 105.13872115 -35.51098633 110.95068359 C-29.77291722 134.31154381 -24.04472564 157.67505831 -18.41250038 181.06170273 C-17.92523115 183.08261362 -17.43645411 185.10316162 -16.94609642 187.12332535 C-16.27385462 189.89481431 -15.60742471 192.66763544 -14.94262695 195.44091797 C-14.74392061 196.25527691 -14.54521427 197.06963585 -14.34048653 197.90867233 C-13.51017612 201.39834398 -13 204.39118973 -13 208 C-11.4840625 207.95359375 -11.4840625 207.95359375 -9.9375 207.90625 C8.14653739 208.33682232 23.88155283 218.30959072 36 231 C50.65666875 246.4625337 54.85510576 265.371851 54.33984375 286.140625 C53.48830577 305.08658748 44.70778786 321.25515591 31 334 C28.27734558 335.99350027 25.57551263 337.92430049 22.703125 339.6953125 C20.55395507 342.60359291 20.95531776 343.63497193 21.39355469 347.14404297 C21.50173523 348.05137177 21.60991577 348.95870056 21.72137451 349.89352417 C21.81332092 350.58866119 21.90526733 351.28379822 22 352 C14.86918592 352.10246541 7.73856562 352.17190662 0.60717773 352.21972656 C-1.81249078 352.2396879 -4.23211204 352.26686673 -6.65161133 352.30175781 C-30.12622374 352.63149829 -50.29615036 350.10594936 -67.92333984 333.19995117 C-82.90393387 318.23728264 -90.19140625 301.3971956 -90.4375 280.1875 C-90.31326998 260.15425951 -84.00076491 242.93254104 -69.79296875 228.65625 C-53.33088235 213 -53.33088235 213 -45 213 C-45 211.35 -45 209.7 -45 208 C-50.08656172 208.09435185 -55.17269246 208.20061507 -60.25878906 208.31738281 C-61.98495884 208.3553985 -63.71120047 208.39029635 -65.4375 208.421875 C-86.13536517 208.48375065 -86.13536517 208.48375065 -103.75 218.25 C-109.35605842 224.20163736 -111.97065036 230.88380852 -112.31640625 238.984375 C-112.37924805 240.38623047 -112.37924805 240.38623047 -112.44335938 241.81640625 C-112.48267578 242.78449219 -112.52199219 243.75257813 -112.5625 244.75 C-112.62727539 246.22533203 -112.62727539 246.22533203 -112.69335938 247.73046875 C-112.79922052 250.15351275 -112.90130171 252.5766554 -113 255 C-120.1720947 254.30564279 -127.01245688 252.66237462 -134 250.9375 C-135.15628906 250.65583984 -136.31257813 250.37417969 -137.50390625 250.08398438 C-140.33693276 249.39328783 -143.16889673 248.6985301 -146 248 C-147.03194763 218.86097406 -147.03194763 218.86097406 -141 206 C-140.34 206 -139.68 206 -139 206 C-138.73832031 205.27296875 -138.47664063 204.5459375 -138.20703125 203.796875 C-132.84640062 191.37547847 -120.01587115 183.17925481 -108 178 C-101.9419201 175.83782426 -96.43230997 175.73811577 -90.03515625 175.8046875 C-89.00184677 175.8075174 -87.96853729 175.81034729 -86.90391541 175.81326294 C-83.62332278 175.82440353 -80.34300927 175.84949696 -77.0625 175.875 C-74.83008208 175.8850377 -72.59765986 175.89416217 -70.36523438 175.90234375 C-64.910062 175.92432279 -59.45505095 175.95773916 -54 176 C-54.39011009 174.38984512 -54.39011009 174.38984512 -54.7881012 172.74716187 C-57.27426373 162.48495426 -59.75907021 152.22241908 -62.24264622 141.95958519 C-63.51861765 136.68709188 -64.79501924 131.41470359 -66.07250977 126.14257812 C-71.81294154 102.45078961 -77.52917318 78.75573973 -83 55 C-82.071875 54.443125 -81.14375 53.88625 -80.1875 53.3125 C-76.94205136 50.95795883 -75.53525917 49.65613267 -74 46 C-73.63881509 42.41771784 -73.63881509 42.41771784 -73.8125 38.6875 C-73.83957031 37.43324219 -73.86664063 36.17898437 -73.89453125 34.88671875 C-73.92933594 33.93410156 -73.96414063 32.98148438 -74 32 C-73.18772949 32.12681152 -72.37545898 32.25362305 -71.53857422 32.38427734 C-60.10946165 33.86597729 -47.32531406 35.24037022 -37.57226562 28.02441406 C-28.98953038 20.90332467 -21.60195335 12.39498216 -14.47314453 3.8515625 C-10.31660225 -0.94097588 -6.07946941 -0.71691856 0 0 Z " fill="#708698" transform="translate(402,112)"/>
<path d="M0 0 C27.6444418 -0.67016829 27.6444418 -0.67016829 39.734375 8.73046875 C47.24495937 16.2540024 51.31644791 24.55949947 55.15234375 34.3359375 C55.70172177 35.7063937 56.25224449 37.07639152 56.80384827 38.44595337 C57.94790076 41.29497688 59.08240536 44.14753717 60.20922852 47.00341797 C61.65375788 50.66402629 63.11569096 54.31736026 64.5838995 57.96852684 C65.71651226 60.78737679 66.84331817 63.60851569 67.96801949 66.43053055 C68.50566199 67.77935094 69.04433468 69.12776116 69.58405876 70.47574997 C70.33350468 72.35196071 71.07502659 74.23133085 71.81616211 76.11083984 C72.23917099 77.17845551 72.66217987 78.24607117 73.0980072 79.34603882 C74 82 74 82 74 85 C71.62109375 86.61328125 71.62109375 86.61328125 68.4375 88.3125 C59.9374231 93.10127572 54.88013471 97.67302309 49.48046875 105.828125 C48 108 48 108 46 110 C41.16625616 103.43641383 36.4658319 96.81936901 32 90 C31.56779144 90.92877457 31.13558289 91.85754913 30.6902771 92.81446838 C25.72907547 103.01696987 19.56137713 110.41270145 11.4765625 118.27734375 C10.28070131 119.46519776 9.08625962 120.65448234 7.89315796 121.84510803 C5.41759151 124.30856314 2.93125325 126.76033303 0.43505859 129.20288086 C-2.76851633 132.33781951 -5.95160836 135.49260755 -9.12805748 138.65500546 C-12.16983658 141.6817164 -15.2211991 144.69868671 -18.2734375 147.71484375 C-18.85392223 148.29005201 -19.43440697 148.86526028 -20.03248215 149.45789909 C-21.66401314 151.07107266 -23.30219389 152.67714202 -24.94287109 154.28100586 C-25.87360443 155.19506699 -26.80433777 156.10912811 -27.76327515 157.05088806 C-30 159 -30 159 -32 159 C-31.79318604 159.98806641 -31.58637207 160.97613281 -31.37329102 161.99414062 C-30.60036987 165.6910636 -29.83168055 169.38885627 -29.06420898 173.08691406 C-28.73266494 174.68155218 -28.40000276 176.27595828 -28.06616211 177.87011719 C-27.58406845 180.17321334 -27.10612007 182.4771384 -26.62890625 184.78125 C-26.48095108 185.48366821 -26.33299591 186.18608643 -26.18055725 186.90979004 C-25.76321952 188.93615172 -25.37488402 190.96538303 -25 193 C-24.86055466 193.71095322 -24.72110931 194.42190643 -24.57743835 195.15440369 C-23.6966545 200.39524709 -23.6966545 200.39524709 -25.1081543 203.20922852 C-25.9576062 204.03571899 -25.9576062 204.03571899 -26.82421875 204.87890625 C-27.44103516 205.48927734 -28.05785156 206.09964844 -28.69335938 206.72851562 C-29.35142578 207.33373047 -30.00949219 207.93894531 -30.6875 208.5625 C-31.32623047 209.20251953 -31.96496094 209.84253906 -32.62304688 210.50195312 C-36.17337726 213.91276691 -36.17337726 213.91276691 -38 215 C-40.5915457 214.85098225 -41.64528959 214.36422008 -43.45703125 212.50390625 C-43.90433594 211.86324219 -44.35164063 211.22257813 -44.8125 210.5625 C-45.32425781 209.84126953 -45.83601563 209.12003906 -46.36328125 208.37695312 C-46.90339844 207.59255859 -47.44351563 206.80816406 -48 206 C-48.85658203 204.78473633 -48.85658203 204.78473633 -49.73046875 203.54492188 C-51.49637951 201.03639302 -53.24823085 198.51841642 -55 196 C-56.51028613 193.85320924 -58.02485692 191.70949891 -59.54003906 189.56616211 C-60.51217281 188.19038152 -61.48288045 186.8135921 -62.45214844 185.43579102 C-68.22420998 177.23505307 -74.11156542 169.11738195 -80 161 C-78.51132905 157.86725184 -77.05956454 155.91750917 -74.5 153.5625 C-69.93322629 149.12881988 -66.19867805 144.22762615 -62.39453125 139.1484375 C-60.808479 137.06302459 -59.15926057 135.02407276 -57.44921875 133.0390625 C-55.31461626 130.39038509 -53.71504596 127.78041385 -52.0859375 124.80810547 C-50.07374518 121.45776907 -47.50909794 118.54764861 -45 115.5625 C-40.41460572 110.01940091 -35.97419259 104.4023865 -31.6875 98.625 C-27.24834412 92.64289586 -22.71506742 86.76902366 -18 81 C-22.28118783 77.35970855 -26.88775065 74.51192125 -31.6875 71.625 C-32.48462402 71.14184326 -33.28174805 70.65868652 -34.10302734 70.16088867 C-36.39974111 68.77010867 -38.69929644 67.38416734 -41 66 C-42.12277344 65.32324219 -43.24554688 64.64648438 -44.40234375 63.94921875 C-46.59911324 62.62863566 -48.79773858 61.31139688 -51 60 C-49.60919475 56.86261846 -47.98977796 54.74524719 -45.56005859 52.33300781 C-44.85948334 51.63258362 -44.15890808 50.93215942 -43.43710327 50.21051025 C-42.68184357 49.46557312 -41.92658386 48.72063599 -41.1484375 47.953125 C-40.37440582 47.18192322 -39.60037415 46.41072144 -38.80288696 45.6161499 C-36.33158077 43.15603144 -33.85340817 40.70296152 -31.375 38.25 C-29.69745948 36.58249106 -28.02037055 34.91452768 -26.34375 33.24609375 C-22.23439081 29.1587763 -18.11937353 25.07722304 -14 21 C-10 23 -10 23 -1 30 C-0.67 20.1 -0.34 10.2 0 0 Z " fill="#FECDB5" transform="translate(216,208)"/>
<path d="M0 0 C1.67121954 2.5068293 2.7388735 4.62388376 3.875 7.375 C6.14898128 12.54161923 8.867322 16.1381481 13.25 19.6875 C14.1575 20.450625 15.065 21.21375 16 22 C16 22.66 16 23.32 16 24 C16.66 24 17.32 24 18 24 C19.625 25.375 19.625 25.375 21 27 C21 27.66 21 28.32 21 29 C21.66 29 22.32 29 23 29 C23 29.66 23 30.32 23 31 C23.66 31 24.32 31 25 31 C25 31.66 25 32.32 25 33 C26.485 33.495 26.485 33.495 28 34 C28 34.66 28 35.32 28 36 C28.66 36 29.32 36 30 36 C30 36.66 30 37.32 30 38 C31.485 38.495 31.485 38.495 33 39 C33 39.66 33 40.32 33 41 C33.66 41 34.32 41 35 41 C35 41.66 35 42.32 35 43 C35.66 43 36.32 43 37 43 C37 43.66 37 44.32 37 45 C37.66 45 38.32 45 39 45 C41.125 46.875 41.125 46.875 43 49 C43 49.66 43 50.32 43 51 C43.66 51 44.32 51 45 51 C43.65427113 53.99943905 42.16462899 56.08076179 39.83544922 58.39160156 C39.19493622 59.0319635 38.55442322 59.67232544 37.89450073 60.33209229 C37.20486237 61.01140808 36.515224 61.69072388 35.8046875 62.390625 C35.09724396 63.09523865 34.38980042 63.79985229 33.66091919 64.52581787 C31.40360138 66.7719539 29.13942367 69.01103009 26.875 71.25 C25.34199047 72.77297717 23.80943285 74.29640939 22.27734375 75.8203125 C18.52427042 79.55305498 14.76200126 83.27617011 11 87 C29.81 87.495 29.81 87.495 49 88 C49 98.23 49 108.46 49 119 C45 116 41 113 37 110 C33.86261846 111.39080525 31.74524719 113.01022204 29.33300781 115.43994141 C28.63258362 116.14051666 27.93215942 116.84109192 27.21051025 117.56289673 C26.09310455 118.69578629 26.09310455 118.69578629 24.953125 119.8515625 C24.18192322 120.62559418 23.41072144 121.39962585 22.6161499 122.19711304 C20.15603144 124.66841923 17.70296152 127.14659183 15.25 129.625 C13.58249106 131.30254052 11.91452768 132.97962945 10.24609375 134.65625 C6.1587763 138.76560919 2.07722304 142.88062647 -2 147 C-6.30724166 145.70679325 -9.87733316 144.05392566 -13.703125 141.69921875 C-14.76660156 141.05146484 -15.83007812 140.40371094 -16.92578125 139.73632812 C-18.02277344 139.06021484 -19.11976563 138.38410156 -20.25 137.6875 C-26.99649806 133.54230363 -33.67333073 129.49364781 -40.85180664 126.13476562 C-51.67190355 120.41913766 -58.31155313 109.30330491 -62 98 C-65.21409133 86.68486025 -64.05098305 72.47871923 -59 62 C-53.92343161 53.40353397 -46.99112325 46.59701452 -39.94140625 39.6484375 C-38.78489887 38.49753906 -37.62906218 37.34596631 -36.47386169 36.1937561 C-33.46057571 33.19181679 -30.43838646 30.19900489 -27.41412354 27.20812988 C-24.31808069 24.14300971 -21.23072185 21.06916861 -18.14257812 17.99609375 C-12.1034232 11.9889229 -6.05481558 5.99138551 0 0 Z " fill="#FEB402" transform="translate(167,120)"/>
<path d="M0 0 C2.79937292 2.79937292 3.18209283 6.01675319 4.07202148 9.75878906 C4.26940981 10.56380608 4.46679813 11.36882309 4.67016792 12.19823456 C5.32729461 14.88575341 5.9741885 17.57562905 6.62109375 20.265625 C7.08150542 22.15771905 7.54253037 24.04966396 8.00413513 25.94146729 C9.23635446 30.9994164 10.45970845 36.0594706 11.68117523 41.12002563 C12.93457093 46.30707828 14.19557003 51.492282 15.45556641 56.67773438 C18.1060743 67.59277961 20.74441651 78.51074107 23.37943268 89.42953491 C24.28940343 93.1987441 25.2010958 96.96753624 26.11279297 100.73632812 C27.70547468 107.32295501 29.29281462 113.91084434 30.875 120.5 C31.0992868 121.43235474 31.32357361 122.36470947 31.55465698 123.32531738 C32.16146703 125.85167509 32.76507518 128.37876917 33.3671875 130.90625 C33.62332069 131.97144867 33.62332069 131.97144867 33.8846283 133.0581665 C35 137.76847018 35 137.76847018 35 140 C13.68800563 140.77891553 -5.21581431 137.43486539 -21.4375 122.625 C-36.18045722 108.48522982 -44.81064197 91.9867102 -45.40063477 71.36474609 C-45.6374957 50.95078448 -40.51970066 33.04977985 -26.20654297 18.07885742 C-18.2851873 10.12892936 -10.21820698 4.63506296 0 0 Z " fill="#62798C" transform="translate(357,324)"/>
<path d="M0 0 C16.01886951 -0.49037356 31.72927441 6.6857752 43.4375 17.375 C58.18045722 31.51477018 66.81064197 48.0132898 67.40063477 68.63525391 C67.63840568 89.12764266 62.46888797 106.93496283 48.15600586 121.97827148 C44.14767926 126.01591198 39.91846821 130.08990631 35 133 C34.01 133 33.02 133 32 133 C28.71288608 119.61127059 25.42648149 106.22236727 22.1409359 92.83325291 C20.61463854 86.61344343 19.08811401 80.39368992 17.56103516 74.17407227 C16.08212332 68.15059475 14.60385409 62.12695984 13.12599564 56.1032238 C12.56737903 53.82676734 12.00854655 51.55036385 11.44947433 49.27401924 C9.6264557 41.85093243 7.80906408 34.42650052 6 27 C5.71791939 25.84232494 5.43583878 24.68464989 5.14521027 23.49189377 C4.29661115 20.00300635 3.45164547 16.51325987 2.60791016 13.02319336 C2.34591009 11.94636323 2.08391003 10.8695331 1.81397057 9.76007175 C1.45657012 8.27654414 1.45657012 8.27654414 1.09194946 6.76304626 C0.88051111 5.8892781 0.66907276 5.01550993 0.45122719 4.11526394 C0 2 0 2 0 0 Z " fill="#62798C" transform="translate(389,320)"/>
<path d="M0 0 C1.05550552 0.0028299 2.11101105 0.00565979 3.19850159 0.00857544 C6.55042129 0.01971835 9.90206809 0.04481226 13.25390625 0.0703125 C15.53450133 0.0803499 17.81510063 0.08947442 20.09570312 0.09765625 C25.66936303 0.11963838 31.24286514 0.15305713 36.81640625 0.1953125 C38.44403323 4.96118975 40.04382164 9.69194717 41.203125 14.59765625 C41.41904297 15.50708984 41.63496094 16.41652344 41.85742188 17.35351562 C42.07076172 18.27068359 42.28410156 19.18785156 42.50390625 20.1328125 C42.72884766 21.07705078 42.95378906 22.02128906 43.18554688 22.99414062 C44.81640625 29.91909669 44.81640625 29.91909669 44.81640625 32.1953125 C43.21369873 32.2250415 43.21369873 32.2250415 41.57861328 32.25537109 C37.57139602 32.33209668 33.56451064 32.42070416 29.55761719 32.51269531 C27.83144741 32.550711 26.10520578 32.58560885 24.37890625 32.6171875 C3.68104108 32.67906315 3.68104108 32.67906315 -13.93359375 42.4453125 C-19.53965217 48.39694986 -22.15424411 55.07912102 -22.5 63.1796875 C-22.5628418 64.58154297 -22.5628418 64.58154297 -22.62695312 66.01171875 C-22.66626953 66.97980469 -22.70558594 67.94789063 -22.74609375 68.9453125 C-22.81086914 70.42064453 -22.81086914 70.42064453 -22.87695312 71.92578125 C-22.98281427 74.34882525 -23.08489546 76.7719679 -23.18359375 79.1953125 C-30.35568845 78.50095529 -37.19605063 76.85768712 -44.18359375 75.1328125 C-45.33988281 74.85115234 -46.49617188 74.56949219 -47.6875 74.27929688 C-50.52052651 73.58860033 -53.35249048 72.8938426 -56.18359375 72.1953125 C-57.21554138 43.05628656 -57.21554138 43.05628656 -51.18359375 30.1953125 C-50.52359375 30.1953125 -49.86359375 30.1953125 -49.18359375 30.1953125 C-48.92191406 29.46828125 -48.66023438 28.74125 -48.390625 27.9921875 C-43.02999437 15.57079097 -30.1994649 7.37456731 -18.18359375 2.1953125 C-12.06354723 0.00115664 -6.46431199 -0.0658192 0 0 Z " fill="#62798C" transform="translate(312.18359375,287.8046875)"/>
<path d="M0 0 C27.29843653 -0.93920782 27.29843653 -0.93920782 39.734375 8.73046875 C47.24495937 16.2540024 51.31644791 24.55949947 55.15234375 34.3359375 C55.70172177 35.7063937 56.25224449 37.07639152 56.80384827 38.44595337 C57.94790076 41.29497688 59.08240536 44.14753717 60.20922852 47.00341797 C61.65375788 50.66402629 63.11569096 54.31736026 64.5838995 57.96852684 C65.71651226 60.78737679 66.84331817 63.60851569 67.96801949 66.43053055 C68.50566199 67.77935094 69.04433468 69.12776116 69.58405876 70.47574997 C70.33350468 72.35196071 71.07502659 74.23133085 71.81616211 76.11083984 C72.23917099 77.17845551 72.66217987 78.24607117 73.0980072 79.34603882 C74 82 74 82 74 85 C71.62109375 86.61328125 71.62109375 86.61328125 68.4375 88.3125 C59.9374231 93.10127572 54.88013471 97.67302309 49.48046875 105.828125 C48 108 48 108 46 110 C44.05616 107.38970057 42.13688781 104.76632143 40.24609375 102.1171875 C38.84517605 100.17295737 37.40545343 98.25542766 35.91015625 96.3828125 C30.83209144 89.54975188 30.48640808 83.92064303 30.8671875 75.734375 C31.24548509 65.09753695 26.82200736 55.99864716 20 48 C15.36361357 43.05869102 10.16247761 39.0340136 4.72265625 35.03125 C2 33 2 33 0 31 C-0.22705078 27.92724609 -0.22705078 27.92724609 -0.1953125 24.0234375 C-0.1924826 23.33819 -0.18965271 22.6529425 -0.18673706 21.94692993 C-0.17553281 19.75610973 -0.15042859 17.56569684 -0.125 15.375 C-0.11497048 13.8906309 -0.10584458 12.4062554 -0.09765625 10.921875 C-0.07559294 7.28111739 -0.04106176 3.64059844 0 0 Z " fill="#FEBEA1" transform="translate(216,208)"/>
<path d="M0 0 C2.8611068 2.00494227 5.49125777 4.07706307 8.0625 6.4453125 C8.74699219 6.12304688 9.43148437 5.80078125 10.13671875 5.46875 C16.61116453 3.2039906 25.16143103 3.13645645 31.5 5.9453125 C36.66818759 9.06845382 40.57049266 13.78564725 43.5 19.0078125 C44.2320672 22.18010368 44.09658752 25.19942316 44.0625 28.4453125 C43.414021 28.39705322 42.76554199 28.34879395 42.09741211 28.29907227 C27.85593659 27.12050415 27.85593659 27.12050415 15.4453125 32.8515625 C13.4627614 34.86709549 11.69297761 36.9193724 9.97045898 39.16040039 C5.98366388 44.26758338 5.98366388 44.26758338 2.65576172 44.90966797 C0.15234375 44.91015625 0.15234375 44.91015625 -3.9375 44.4453125 C-4.2675 40.1553125 -4.5975 35.8653125 -4.9375 31.4453125 C-6.01 32.6209375 -7.0825 33.7965625 -8.1875 35.0078125 C-18.75622976 45.44720465 -32.38741583 50.41557073 -47.125 50.8828125 C-58.61005431 50.30055896 -69.1623974 46.48682072 -79.75 42.2578125 C-80.93142578 41.79439453 -82.11285156 41.33097656 -83.33007812 40.85351562 C-86.20250221 39.72547864 -89.07142685 38.589367 -91.9375 37.4453125 C-91.9375 36.7853125 -91.9375 36.1253125 -91.9375 35.4453125 C-90.72803711 35.20409668 -90.72803711 35.20409668 -89.49414062 34.95800781 C-86.4655141 34.34828145 -83.43921348 33.72828701 -80.4140625 33.1015625 C-78.47554621 32.70313227 -76.53465945 32.31629141 -74.59375 31.9296875 C-63.63555544 29.6467303 -54.28362615 26.86210609 -47.69921875 17.140625 C-47.00284932 15.95341813 -46.31155412 14.76322238 -45.625 13.5703125 C-41.92235809 7.50965157 -38.15920955 3.0971855 -31.9375 -0.5546875 C-31.3496875 -0.91046875 -30.761875 -1.26625 -30.15625 -1.6328125 C-21.18250463 -5.96225106 -8.36487945 -4.94545238 0 0 Z " fill="#B1702C" transform="translate(203.9375,27.5546875)"/>
<path d="M0 0 C1.67121954 2.5068293 2.7388735 4.62388376 3.875 7.375 C6.14898128 12.54161923 8.867322 16.1381481 13.25 19.6875 C14.1575 20.450625 15.065 21.21375 16 22 C16 22.66 16 23.32 16 24 C16.66 24 17.32 24 18 24 C19.625 25.375 19.625 25.375 21 27 C21 27.66 21 28.32 21 29 C21.66 29 22.32 29 23 29 C23 29.66 23 30.32 23 31 C23.66 31 24.32 31 25 31 C25 31.66 25 32.32 25 33 C25.99 33.33 26.98 33.66 28 34 C28 34.66 28 35.32 28 36 C28.66 36 29.32 36 30 36 C30 36.66 30 37.32 30 38 C30.99 38.33 31.98 38.66 33 39 C33 39.66 33 40.32 33 41 C33.66 41 34.32 41 35 41 C35 41.66 35 42.32 35 43 C35.66 43 36.32 43 37 43 C37 43.66 37 44.32 37 45 C37.66 45 38.32 45 39 45 C41.125 46.875 41.125 46.875 43 49 C43 49.66 43 50.32 43 51 C43.66 51 44.32 51 45 51 C43.43717018 54.76603869 41.0936525 57.13639151 38.2109375 59.984375 C37.74765045 60.44483215 37.2843634 60.90528931 36.80703735 61.37969971 C35.33434102 62.84125078 33.85482597 64.29567168 32.375 65.75 C31.37193678 66.74302611 30.36932743 67.73651089 29.3671875 68.73046875 C26.91669165 71.15897941 24.4600333 73.58114675 22 76 C16.03881703 71.06002739 10.58513698 65.71470138 5.12890625 60.2265625 C4.206577 59.3028183 3.28424774 58.3790741 2.33396912 57.42733765 C-0.09633814 54.99324569 -2.52362496 52.55616403 -4.95025635 50.1184082 C-7.43569364 47.6226689 -9.92402932 45.12982292 -12.41210938 42.63671875 C-17.27755096 37.7606114 -22.13980198 32.88133369 -27 28 C-23.42253118 23.74110165 -19.76872235 19.6466932 -15.8203125 15.72265625 C-14.8921875 14.79775391 -13.9640625 13.87285156 -13.0078125 12.91992188 C-12.04693091 11.96739151 -11.08599274 11.01491822 -10.125 10.0625 C-9.14039081 9.08291763 -8.156014 8.10310163 -7.171875 7.12304688 C-4.78351797 4.74639748 -2.39284788 2.37212644 0 0 Z " fill="#EF5F3C" transform="translate(167,120)"/>
<path d="M0 0 C2.93423195 1.79646854 4.47205355 2.9441071 6 6 C6.34375 8.1015625 6.34375 8.1015625 6.5 10.625 C6.60828125 11.85089844 6.60828125 11.85089844 6.71875 13.1015625 C5.54962728 17.81617695 2.3177821 20.56390175 -1 24 C-1.89960449 24.95245605 -2.79920898 25.90491211 -3.72607422 26.88623047 C-6.30512101 29.6047978 -8.91988236 32.28600735 -11.55004883 34.95507812 C-12.63910275 36.06572802 -13.72185078 37.18259751 -14.7980957 38.30566406 C-22.75772653 46.60609274 -31.85362053 55.40116514 -44.03753662 56.12025452 C-44.75701477 56.11803391 -45.47649292 56.11581329 -46.21777344 56.11352539 C-47.03832214 56.11344986 -47.85887085 56.11337433 -48.70428467 56.11329651 C-49.58046448 56.10813522 -50.45664429 56.10297394 -51.359375 56.09765625 C-52.71594208 56.09553383 -52.71594208 56.09553383 -54.09991455 56.09336853 C-56.98331027 56.08777911 -59.86662782 56.07522853 -62.75 56.0625 C-64.70703013 56.05748363 -66.66406147 56.05292096 -68.62109375 56.04882812 C-73.41409253 56.03781313 -78.20703302 56.02055574 -83 56 C-82.22269531 55.38898438 -81.44539063 54.77796875 -80.64453125 54.1484375 C-77.37968303 51.49604973 -75.79588564 49.85782842 -74 46 C-73.88393159 43.59368695 -73.85702369 41.1822562 -73.89453125 38.7734375 C-73.9097583 37.50677246 -73.92498535 36.24010742 -73.94067383 34.93505859 C-73.96025146 33.96648926 -73.9798291 32.99791992 -74 32 C-73.18772949 32.12681152 -72.37545898 32.25362305 -71.53857422 32.38427734 C-60.10946165 33.86597729 -47.32531406 35.24037022 -37.57226562 28.02441406 C-28.98953038 20.90332467 -21.60195335 12.39498216 -14.47314453 3.8515625 C-10.31660225 -0.94097588 -6.07946941 -0.71691856 0 0 Z " fill="#8098AB" transform="translate(402,112)"/>
<path d="M0 0 C0.09965569 4.26832981 0.17183391 8.53602469 0.21972656 12.80517578 C0.23971295 14.25418917 0.26691197 15.70312325 0.30175781 17.15185547 C0.52220504 26.55976527 0.57853743 33.7751879 -5.96484375 41.2421875 C-12.37794888 46.55046066 -15.31112733 48 -24 48 C-24 52.95 -24 57.9 -24 63 C-24.66 63 -25.32 63 -26 63 C-26 62.34 -26 61.68 -26 61 C-26.66 61 -27.32 61 -28 61 C-28 60.34 -28 59.68 -28 59 C-28.66 59 -29.32 59 -30 59 C-30 58.34 -30 57.68 -30 57 C-30.66 57 -31.32 57 -32 57 C-33.625 55.625 -33.625 55.625 -35 54 C-35 53.34 -35 52.68 -35 52 C-36.485 51.505 -36.485 51.505 -38 51 C-38 50.34 -38 49.68 -38 49 C-38.66 49 -39.32 49 -40 49 C-40 48.34 -40 47.68 -40 47 C-43.5651138 45.18089865 -47.20552061 43.58581235 -50.87890625 42 C-53 41 -53 41 -56 39 C-55.50628906 38.6803125 -55.01257813 38.360625 -54.50390625 38.03125 C-50.799677 35.1096044 -48.88443414 32.68786329 -48.3125 27.97265625 C-48.01625833 23.98118957 -47.96637677 20.00116488 -48 16 C-47.42644775 16.01554932 -46.85289551 16.03109863 -46.26196289 16.04711914 C-41.36965648 15.89331936 -41.36965648 15.89331936 -37.23779297 13.51123047 C-35.59723711 11.51607127 -34.01789499 9.48056337 -32.4375 7.4375 C-23.50977961 -2.94293122 -12.70093897 -1.5385036 0 0 Z " fill="#FECDB5" transform="translate(248,56)"/>
<path d="M0 0 C1.20140625 0.19851563 2.4028125 0.39703125 3.640625 0.6015625 C4.30513672 0.7051709 4.96964844 0.8087793 5.65429688 0.91552734 C8.07548734 1.31131963 10.48133535 1.76371138 12.890625 2.2265625 C13.94314453 2.42701172 14.99566406 2.62746094 16.08007812 2.83398438 C23.36337447 4.23573816 30.63106656 5.70691809 37.890625 7.2265625 C38.87330136 11.92135911 39.85174145 16.61701218 40.82641602 21.31347656 C41.15796006 22.90811468 41.49062224 24.50252078 41.82446289 26.09667969 C42.30655655 28.39977584 42.78450493 30.7037009 43.26171875 33.0078125 C43.40967392 33.71023071 43.55762909 34.41264893 43.71006775 35.13635254 C44.12740548 37.16271422 44.51574098 39.19194553 44.890625 41.2265625 C45.09979301 42.29299232 45.09979301 42.29299232 45.31318665 43.38096619 C46.1939705 48.62180959 46.1939705 48.62180959 44.7824707 51.43579102 C43.9330188 52.26228149 43.9330188 52.26228149 43.06640625 53.10546875 C42.44958984 53.71583984 41.83277344 54.32621094 41.19726562 54.95507812 C40.53919922 55.56029297 39.88113281 56.16550781 39.203125 56.7890625 C38.2450293 57.7490918 38.2450293 57.7490918 37.26757812 58.72851562 C33.71724774 62.13932941 33.71724774 62.13932941 31.890625 63.2265625 C29.2990793 63.07754475 28.24533541 62.59078258 26.43359375 60.73046875 C25.98628906 60.08980469 25.53898437 59.44914062 25.078125 58.7890625 C24.56636719 58.06783203 24.05460937 57.34660156 23.52734375 56.60351562 C22.98722656 55.81912109 22.44710937 55.03472656 21.890625 54.2265625 C21.31957031 53.41638672 20.74851563 52.60621094 20.16015625 51.77148438 C18.39424549 49.26295552 16.64239415 46.74497892 14.890625 44.2265625 C13.38033887 42.07977174 11.86576808 39.93606141 10.35058594 37.79272461 C9.37845219 36.41694402 8.40774455 35.0401546 7.43847656 33.66235352 C1.66641502 25.46161557 -4.22094042 17.34394445 -10.109375 9.2265625 C-7.87231513 4.48769445 -5.62403369 0.4097914 0 0 Z " fill="#DEEBFD" transform="translate(146.109375,359.7734375)"/>
<path d="M0 0 C10.56 0 21.12 0 32 0 C32 18.15 32 36.3 32 55 C23.585 53.02 23.585 53.02 15 51 C9.72178336 49.80184935 9.72178336 49.80184935 4.44140625 48.61328125 C2 48 2 48 0 47 C0 31.49 0 15.98 0 0 Z " fill="#62798C" transform="translate(120,280)"/>
<path d="M0 0 C5.16818759 3.12314132 9.07049266 7.84033475 12 13.0625 C12.7320672 16.23479118 12.59658752 19.25411066 12.5625 22.5 C11.914021 22.45174072 11.26554199 22.40348145 10.59741211 22.35375977 C-3.64406341 21.17519165 -3.64406341 21.17519165 -16.0546875 26.90625 C-18.0372386 28.92178299 -19.80702239 30.9740599 -21.52954102 33.21508789 C-25.51633612 38.32227088 -25.51633612 38.32227088 -28.84423828 38.96435547 C-31.09233698 38.96479395 -33.2161853 38.83418009 -35.4375 38.5 C-35.52570927 35.33351345 -35.5782905 32.16734908 -35.625 29 C-35.65013672 28.113125 -35.67527344 27.22625 -35.70117188 26.3125 C-35.78744429 18.49046798 -34.51761942 12.1229347 -29 6.1875 C-28.42378906 5.55199219 -27.84757813 4.91648437 -27.25390625 4.26171875 C-20.16880188 -2.61007065 -9.15606823 -4.09139269 0 0 Z " fill="#C78640" transform="translate(235.4375,33.5)"/>
<path d="M0 0 C4.6304883 1.5434961 9.04613794 3.21836739 13.53515625 5.09765625 C19.18663974 7.16658285 24.85655148 7.29157318 30.8125 7.5625 C32.13797852 7.62727539 32.13797852 7.62727539 33.49023438 7.69335938 C35.65999623 7.79891536 37.8299791 7.89991071 40 8 C38.66017669 12.3134396 36.99589931 16.24341509 34.9609375 20.2734375 C34.38085938 21.42714844 33.80078125 22.58085937 33.203125 23.76953125 C32.59383809 24.97139883 31.98446198 26.17322119 31.375 27.375 C30.75744122 28.60007332 30.14025018 29.8253321 29.5234375 31.05078125 C28.0192378 34.03567753 26.51009992 37.01808438 25 40 C16.75 40 8.5 40 0 40 C0 26.8 0 13.6 0 0 Z " fill="#718799" transform="translate(80,424)"/>
<path d="M0 0 C13.2 0 26.4 0 40 0 C40 10.56 40 21.12 40 32 C31.75 32 23.5 32 15 32 C12.86005408 27.76596415 10.72258177 23.53086273 8.59130859 19.29248047 C7.86520743 17.85034935 7.13767335 16.40893878 6.40869141 14.96826172 C5.36245182 12.89998128 4.32135554 10.829183 3.28125 8.7578125 C2.95314331 8.11192169 2.62503662 7.46603088 2.2869873 6.80056763 C0 2.22774341 0 2.22774341 0 0 Z " fill="#708798" transform="translate(248,432)"/>
<path d="M0 0 C12.87 0 25.74 0 39 0 C39 10.23 39 20.46 39 31 C34.10727255 27.33045441 29.23743706 23.66055417 24.4375 19.875 C23.85323242 19.41488525 23.26896484 18.95477051 22.66699219 18.48071289 C18.01707232 14.81338737 13.37971968 11.13028598 8.75 7.4375 C8.10603271 6.92493652 7.46206543 6.41237305 6.79858398 5.88427734 C4.43831804 3.99695393 2.13877515 2.13877515 0 0 Z " fill="#FFA100" transform="translate(177,208)"/>
<path d="M0 0 C2 1 2 1 3.6875 4.1875 C6.47103552 9.2352547 10.45381492 12.69585642 15.5625 15.3125 C18.32299669 16.09110163 21.17082645 16.52847108 24 17 C24 21.95 24 26.9 24 32 C23.34 32 22.68 32 22 32 C22 31.34 22 30.68 22 30 C21.34 30 20.68 30 20 30 C20 29.34 20 28.68 20 28 C19.34 28 18.68 28 18 28 C18 27.34 18 26.68 18 26 C17.34 26 16.68 26 16 26 C14.375 24.625 14.375 24.625 13 23 C13 22.34 13 21.68 13 21 C12.01 20.67 11.02 20.34 10 20 C10 19.34 10 18.68 10 18 C9.34 18 8.68 18 8 18 C8 17.34 8 16.68 8 16 C4.4348862 14.18089865 0.79447939 12.58581235 -2.87890625 11 C-5 10 -5 10 -8 8 C-5.36 5.36 -2.72 2.72 0 0 Z " fill="#EF6341" transform="translate(200,87)"/>
</svg>
