<?xml version="1.0" encoding="UTF-8"?>
<svg version="1.1" xmlns="http://www.w3.org/2000/svg" width="306" height="133">
<path d="M0 0 C0.84175781 -0.00257812 1.68351563 -0.00515625 2.55078125 -0.0078125 C3.87142578 0.00378906 3.87142578 0.00378906 5.21875 0.015625 C6.09917969 0.00789063 6.97960937 0.00015625 7.88671875 -0.0078125 C8.72847656 -0.00523438 9.57023438 -0.00265625 10.4375 0 C11.59668945 0.00338379 11.59668945 0.00338379 12.77929688 0.00683594 C14.71875 0.265625 14.71875 0.265625 16.71875 2.265625 C16.90702993 5.18810882 16.9704374 8.01513322 16.94580078 10.93798828 C16.94609283 11.83560883 16.94638489 12.73322937 16.94668579 13.65805054 C16.94528903 16.63411015 16.92971156 19.60992145 16.9140625 22.5859375 C16.9103336 24.64574039 16.90748605 26.70554505 16.90548706 28.76535034 C16.8978409 34.1938362 16.87818399 39.6222155 16.8560791 45.05065918 C16.8356418 50.58714354 16.82648988 56.12364507 16.81640625 61.66015625 C16.79493901 72.52870025 16.75974888 83.3971371 16.71875 94.265625 C9.12875 94.265625 1.53875 94.265625 -6.28125 94.265625 C-6.32636925 82.30485916 -6.36309012 70.3441495 -6.38487434 58.38331795 C-6.39532774 52.82989474 -6.40951523 47.27653259 -6.43212891 41.72314453 C-6.45380192 36.36746492 -6.4658069 31.01184418 -6.47100449 25.65612411 C-6.47471023 23.60910998 -6.48194624 21.5620992 -6.49271011 19.51511002 C-6.50715142 16.65599767 -6.50923104 13.79713101 -6.50830078 10.93798828 C-6.51908661 9.65837219 -6.51908661 9.65837219 -6.53009033 8.35290527 C-6.50942558 2.51386418 -6.1676495 0.01800398 0 0 Z " fill="#33A040" transform="translate(243.28125,20.734375)"/>
<path d="M0 0 C0.84175781 -0.00257812 1.68351562 -0.00515625 2.55078125 -0.0078125 C3.87142578 0.00378906 3.87142578 0.00378906 5.21875 0.015625 C6.09917969 0.00789063 6.97960937 0.00015625 7.88671875 -0.0078125 C8.72847656 -0.00523438 9.57023437 -0.00265625 10.4375 0 C11.59668945 0.00338379 11.59668945 0.00338379 12.77929688 0.00683594 C14.71875 0.265625 14.71875 0.265625 16.71875 2.265625 C16.90648265 4.73511572 16.97071303 7.09142483 16.94580078 9.56103516 C16.94609283 10.31235214 16.94638489 11.06366913 16.94668579 11.8377533 C16.94528987 14.32684792 16.92971658 16.81564503 16.9140625 19.3046875 C16.9103333 21.02818641 16.90748589 22.75168743 16.90548706 24.47518921 C16.8978433 29.01592847 16.87818848 33.5565402 16.8560791 38.097229 C16.83563664 42.72886428 16.82648877 47.36052013 16.81640625 51.9921875 C16.79494323 61.08339844 16.75975509 70.17448117 16.71875 79.265625 C9.12875 79.265625 1.53875 79.265625 -6.28125 79.265625 C-6.32637702 69.26061691 -6.3630946 59.25567607 -6.38487434 49.25058937 C-6.39532582 44.60517226 -6.40950979 39.95982819 -6.43212891 35.31445312 C-6.4538088 30.83409275 -6.46580834 26.35380278 -6.47100449 21.87339401 C-6.47470899 20.16130845 -6.48194266 18.44922688 -6.49271011 16.73717117 C-6.50716068 14.34504014 -6.50923067 11.95320258 -6.50830078 9.56103516 C-6.51549133 8.84821884 -6.52268188 8.13540253 -6.53009033 7.40098572 C-6.50683168 1.89673585 -5.61590014 0.01639337 0 0 Z " fill="#33A040" transform="translate(87.28125,35.734375)"/>
<path d="M0 0 C0.84175781 -0.00257812 1.68351563 -0.00515625 2.55078125 -0.0078125 C3.87142578 0.00378906 3.87142578 0.00378906 5.21875 0.015625 C6.09917969 0.00789063 6.97960937 0.00015625 7.88671875 -0.0078125 C8.72847656 -0.00523438 9.57023438 -0.00265625 10.4375 0 C11.59668945 0.00338379 11.59668945 0.00338379 12.77929688 0.00683594 C14.71875 0.265625 14.71875 0.265625 16.71875 2.265625 C16.95925903 5.23953247 16.95925903 5.23953247 16.94580078 9.10205078 C16.94609283 9.80459991 16.94638489 10.50714905 16.94668579 11.23098755 C16.94529023 13.55776231 16.92971872 15.88421854 16.9140625 18.2109375 C16.91033317 19.82233505 16.90748582 21.43373487 16.90548706 23.0451355 C16.89784431 27.28996014 16.87819039 31.5346483 16.8560791 35.77941895 C16.83563443 40.1094376 16.8264883 44.43947826 16.81640625 48.76953125 C16.79494503 57.26829883 16.75975774 65.76692923 16.71875 74.265625 C9.12875 74.265625 1.53875 74.265625 -6.28125 74.265625 C-6.32638034 64.91253622 -6.36309651 55.5595194 -6.38487434 46.20634651 C-6.395325 41.86359751 -6.40950747 37.52092667 -6.43212891 33.17822266 C-6.45381174 28.98963525 -6.46580896 24.80112316 -6.47100449 20.61248398 C-6.47470847 19.0120411 -6.48194113 17.41160249 -6.49271011 15.81119156 C-6.50716463 13.57471968 -6.50923051 11.33856163 -6.50830078 9.10205078 C-6.512742 7.82741974 -6.51718323 6.5527887 -6.52175903 5.23953247 C-6.13830376 0.49808683 -4.32058557 0.01261222 0 0 Z " fill="#33A040" transform="translate(204.28125,40.734375)"/>
<path d="M0 0 C0.84175781 -0.00257812 1.68351563 -0.00515625 2.55078125 -0.0078125 C3.87142578 0.00378906 3.87142578 0.00378906 5.21875 0.015625 C6.09917969 0.00789063 6.97960937 0.00015625 7.88671875 -0.0078125 C8.72847656 -0.00523438 9.57023438 -0.00265625 10.4375 0 C11.59668945 0.00338379 11.59668945 0.00338379 12.77929688 0.00683594 C14.71875 0.265625 14.71875 0.265625 16.71875 2.265625 C16.95925903 5.23953247 16.95925903 5.23953247 16.94580078 9.10205078 C16.94609283 9.80459991 16.94638489 10.50714905 16.94668579 11.23098755 C16.94529023 13.55776231 16.92971872 15.88421854 16.9140625 18.2109375 C16.91033317 19.82233505 16.90748582 21.43373487 16.90548706 23.0451355 C16.89784431 27.28996014 16.87819039 31.5346483 16.8560791 35.77941895 C16.83563443 40.1094376 16.8264883 44.43947826 16.81640625 48.76953125 C16.79494503 57.26829883 16.75975774 65.76692923 16.71875 74.265625 C9.12875 74.265625 1.53875 74.265625 -6.28125 74.265625 C-6.32638034 64.91253622 -6.36309651 55.5595194 -6.38487434 46.20634651 C-6.395325 41.86359751 -6.40950747 37.52092667 -6.43212891 33.17822266 C-6.45381174 28.98963525 -6.46580896 24.80112316 -6.47100449 20.61248398 C-6.47470847 19.0120411 -6.48194113 17.41160249 -6.49271011 15.81119156 C-6.50716463 13.57471968 -6.50923051 11.33856163 -6.50830078 9.10205078 C-6.512742 7.82741974 -6.51718323 6.5527887 -6.52175903 5.23953247 C-6.13830376 0.49808683 -4.32058557 0.01261222 0 0 Z " fill="#33A040" transform="translate(165.28125,40.734375)"/>
<path d="M0 0 C0.84175781 -0.00257812 1.68351562 -0.00515625 2.55078125 -0.0078125 C3.87142578 0.00378906 3.87142578 0.00378906 5.21875 0.015625 C6.09917969 0.00789063 6.97960937 0.00015625 7.88671875 -0.0078125 C8.72847656 -0.00523438 9.57023437 -0.00265625 10.4375 0 C11.59668945 0.00338379 11.59668945 0.00338379 12.77929688 0.00683594 C14.71875 0.265625 14.71875 0.265625 16.71875 2.265625 C16.95925903 4.9737854 16.95925903 4.9737854 16.94580078 8.45947266 C16.94564972 9.76067047 16.94549866 11.06186829 16.94534302 12.40249634 C16.93512893 13.82822827 16.92469692 15.25395865 16.9140625 16.6796875 C16.91033295 18.13414313 16.9074857 19.58860127 16.90548706 21.0430603 C16.897846 24.87360556 16.87819357 28.70399946 16.8560791 32.53448486 C16.83563078 36.44223991 16.82648752 40.35001939 16.81640625 44.2578125 C16.794948 51.92716036 16.75976215 59.59635221 16.71875 67.265625 C9.12875 67.265625 1.53875 67.265625 -6.28125 67.265625 C-6.32638587 58.82521709 -6.36309966 50.38490257 -6.38487434 41.94440651 C-6.39532365 38.02539216 -6.40950362 34.10646447 -6.43212891 30.1875 C-6.45381661 26.40739461 -6.46580998 22.62737272 -6.47100449 18.84720993 C-6.47470759 17.40306661 -6.4819386 15.958928 -6.49271011 14.5148201 C-6.50717017 12.49641606 -6.50806645 10.47792848 -6.50830078 8.45947266 C-6.512742 7.30919586 -6.51718323 6.15891907 -6.52175903 4.9737854 C-6.11537342 0.39783492 -4.11793744 0.01202067 0 0 Z " fill="#33A040" transform="translate(282.28125,47.734375)"/>
<path d="M0 0 C0.84175781 -0.00257812 1.68351562 -0.00515625 2.55078125 -0.0078125 C3.87142578 0.00378906 3.87142578 0.00378906 5.21875 0.015625 C6.09917969 0.00789063 6.97960938 0.00015625 7.88671875 -0.0078125 C8.72847656 -0.00523438 9.57023437 -0.00265625 10.4375 0 C11.59668945 0.00338379 11.59668945 0.00338379 12.77929688 0.00683594 C14.71875 0.265625 14.71875 0.265625 16.71875 2.265625 C16.95925903 4.8598938 16.95925903 4.8598938 16.94580078 8.18408203 C16.94564972 9.42521759 16.94549866 10.66635315 16.94534302 11.94509888 C16.935129 13.3045467 16.924697 14.6639929 16.9140625 16.0234375 C16.91033284 17.41063229 16.90748565 18.79782971 16.90548706 20.18502808 C16.89784684 23.83802551 16.87819516 27.49086417 16.8560791 31.14379883 C16.83562896 34.87058362 16.82648713 38.59739404 16.81640625 42.32421875 C16.79494948 49.63810163 16.75976434 56.95182085 16.71875 64.265625 C9.12875 64.265625 1.53875 64.265625 -6.28125 64.265625 C-6.32638861 56.21636843 -6.36310124 48.16720982 -6.38487434 40.11786079 C-6.39532298 36.3804467 -6.4095017 32.6431235 -6.43212891 28.90576172 C-6.45381904 25.30072 -6.46581049 21.69576583 -6.47100449 18.09066391 C-6.47470716 16.71350602 -6.48193734 15.33635306 -6.49271011 13.95923233 C-6.50717335 12.03422955 -6.50806648 10.10913913 -6.50830078 8.18408203 C-6.512742 7.08709991 -6.51718323 5.9901178 -6.52175903 4.8598938 C-6.10413563 0.35516753 -4.02989224 0.01176366 0 0 Z " fill="#33A040" transform="translate(48.28125,50.734375)"/>
<path d="M0 0 C0.84175781 -0.00257812 1.68351562 -0.00515625 2.55078125 -0.0078125 C3.87142578 0.00378906 3.87142578 0.00378906 5.21875 0.015625 C6.09917969 0.00789063 6.97960937 0.00015625 7.88671875 -0.0078125 C8.72847656 -0.00523438 9.57023438 -0.00265625 10.4375 0 C11.59668945 0.00338379 11.59668945 0.00338379 12.77929688 0.00683594 C14.71875 0.265625 14.71875 0.265625 16.71875 2.265625 C16.95925903 4.70803833 16.95925903 4.70803833 16.94580078 7.81689453 C16.94564972 8.97794708 16.94549866 10.13899963 16.94534302 11.3352356 C16.93502045 12.59359222 16.92469788 13.85194885 16.9140625 15.1484375 C16.9112326 16.43297821 16.90840271 17.71751892 16.90548706 19.04098511 C16.89784809 22.45725267 16.87819752 25.87335037 16.8560791 29.28955078 C16.83562624 32.77504173 16.82648655 36.2605601 16.81640625 39.74609375 C16.79495172 46.58601435 16.75976753 53.42579404 16.71875 60.265625 C9.12875 60.265625 1.53875 60.265625 -6.28125 60.265625 C-6.3263926 52.73792288 -6.36310363 45.21027095 -6.38487434 37.68246651 C-6.39532198 34.18718573 -6.40949883 30.69200217 -6.43212891 27.19677734 C-6.45796953 23.18065444 -6.46771466 19.16463403 -6.4765625 15.1484375 C-6.48688507 13.89008087 -6.49720764 12.63172424 -6.50784302 11.3352356 C-6.50799408 10.17418304 -6.50814514 9.01313049 -6.50830078 7.81689453 C-6.512742 6.79097198 -6.51718323 5.76504944 -6.52175903 4.70803833 C-6.08754673 0.2985328 -3.91163856 0.01141846 0 0 Z " fill="#33A040" transform="translate(126.28125,54.734375)"/>
<path d="M0 0 C1.98 0 3.96 0 6 0 C6 0.99 6 1.98 6 3 C5.01 3 4.02 3 3 3 C4.65 3.99 6.3 4.98 8 6 C7.67 5.01 7.34 4.02 7 3 C8.11375 2.814375 8.11375 2.814375 9.25 2.625 C11.80141485 2.04513299 13.7267573 1.26291261 16 0 C16 0.66 16 1.32 16 2 C16.66 2 17.32 2 18 2 C18 2.66 18 3.32 18 4 C17.34 4 16.68 4 16 4 C16 5.32 16 6.64 16 8 C16.66 8.33 17.32 8.66 18 9 C16.33333333 9 14.66666667 9 13 9 C12.360625 9.185625 11.72125 9.37125 11.0625 9.5625 C9 10 9 10 6 9 C5.34 9.20625 4.68 9.4125 4 9.625 C3.34 9.74875 2.68 9.8725 2 10 C0.25 8.5625 0.25 8.5625 -1 7 C-0.01 7 0.98 7 2 7 C2.33 6.67 2.66 6.34 3 6 C2.01 5.67 1.02 5.34 0 5 C0 3.35 0 1.7 0 0 Z M10 6 C9.67 6.66 9.34 7.32 9 8 C9.66 8 10.32 8 11 8 C10.67 7.34 10.34 6.68 10 6 Z " fill="#414141" transform="translate(240,123)"/>
<path d="M0 0 C0.66 0 1.32 0 2 0 C2.33 0.99 2.66 1.98 3 3 C3.33 2.01 3.66 1.02 4 0 C4.99 0 5.98 0 7 0 C7.33 0.99 7.66 1.98 8 3 C8.33 2.01 8.66 1.02 9 0 C9.66 0 10.32 0 11 0 C11.33 0.66 11.66 1.32 12 2 C14.52733235 2.65555119 14.52733235 2.65555119 17 3 C17 4.98 17 6.96 17 9 C15.1875 9.625 15.1875 9.625 13 10 C12.01 9.34 11.02 8.68 10 8 C9.01 8.33 8.02 8.66 7 9 C6.67 8.34 6.34 7.68 6 7 C4.02 7.99 4.02 7.99 2 9 C1.34 6.03 0.68 3.06 0 0 Z " fill="#424242" transform="translate(119,123)"/>
<path d="M0 0 C0.99 0 1.98 0 3 0 C3.33 1.65 3.66 3.3 4 5 C4.66 5 5.32 5 6 5 C6.33 3.35 6.66 1.7 7 0 C7.99 0 8.98 0 10 0 C10.33 0.99 10.66 1.98 11 3 C12.2065625 2.7215625 12.2065625 2.7215625 13.4375 2.4375 C14.7059375 2.2209375 14.7059375 2.2209375 16 2 C17 3 17 3 17.0625 5.5625 C17.041875 6.366875 17.02125 7.17125 17 8 C15.375 9.125 15.375 9.125 13 10 C10.99161804 9.35902703 8.99172182 8.69100553 7 8 C4.31006947 8.30378052 4.31006947 8.30378052 2 9 C1.34 9 0.68 9 0 9 C0 6.03 0 3.06 0 0 Z M13 4 C13 5.32 13 6.64 13 8 C13.66 8 14.32 8 15 8 C15 6.68 15 5.36 15 4 C14.34 4 13.68 4 13 4 Z " fill="#424242" transform="translate(40,123)"/>
<path d="M0 0 C1.2065625 0.0309375 1.2065625 0.0309375 2.4375 0.0625 C2.7675 0.7225 3.0975 1.3825 3.4375 2.0625 C4.0975 1.4025 4.7575 0.7425 5.4375 0.0625 C8.0625 0.4375 8.0625 0.4375 10.4375 1.0625 C10.4375 3.3725 10.4375 5.6825 10.4375 8.0625 C8.4575 9.0525 8.4575 9.0525 6.4375 10.0625 C5.4475 9.0725 4.4575 8.0825 3.4375 7.0625 C2.4475 8.0525 1.4575 9.0425 0.4375 10.0625 C-0.8825 9.4025 -2.2025 8.7425 -3.5625 8.0625 C-3.60491723 5.72955225 -3.60342937 3.39547433 -3.5625 1.0625 C-2.5625 0.0625 -2.5625 0.0625 0 0 Z M-1.5625 2.0625 C-1.5625 3.7125 -1.5625 5.3625 -1.5625 7.0625 C-0.5725 7.0625 0.4175 7.0625 1.4375 7.0625 C1.4375 5.4125 1.4375 3.7625 1.4375 2.0625 C0.4475 2.0625 -0.5425 2.0625 -1.5625 2.0625 Z M6.4375 2.0625 C5.7560177 3.95429203 5.7560177 3.95429203 5.4375 6.0625 C6.0975 6.7225 6.7575 7.3825 7.4375 8.0625 C8.73383621 6.99604885 8.73383621 6.99604885 8.5 4.5 C8.479375 3.695625 8.45875 2.89125 8.4375 2.0625 C7.7775 2.0625 7.1175 2.0625 6.4375 2.0625 Z " fill="#414141" transform="translate(12.5625,-0.0625)"/>
<path d="M0 0 C2.64 0 5.28 0 8 0 C8.66 2.31 9.32 4.62 10 7 C10.33 7 10.66 7 11 7 C11.33 5.35 11.66 3.7 12 2 C12.33 2 12.66 2 13 2 C13 4.31 13 6.62 13 9 C11.125 9.625 11.125 9.625 9 10 C7 8 7 8 6.875 4.875 C6.91625 3.92625 6.9575 2.9775 7 2 C6.34 2 5.68 2 5 2 C5 4.31 5 6.62 5 9 C4.34 9 3.68 9 3 9 C3 6.69 3 4.38 3 2 C2.01 2 1.02 2 0 2 C0 1.34 0 0.68 0 0 Z " fill="#424242" transform="translate(81,123)"/>
<path d="M0 0 C1.65 0 3.3 0 5 0 C6.10844919 3.32534757 5.84454356 5.62182575 5 9 C4.01 9.33 3.02 9.66 2 10 C1.01 9.34 0.02 8.68 -1 8 C-1.25660094 4.92078868 -1.39431504 2.78863007 0 0 Z M1 5 C1.33 5.99 1.66 6.98 2 8 C2.66 7.67 3.32 7.34 4 7 C4 6.34 4 5.68 4 5 C3.01 5 2.02 5 1 5 Z " fill="#424242" transform="translate(9,24)"/>
<path d="M0 0 C1.65 0 3.3 0 5 0 C5.70074844 3.153368 6 5.72724974 6 9 C4.1875 9.625 4.1875 9.625 2 10 C1.01 9.34 0.02 8.68 -1 8 C-0.67 5.36 -0.34 2.72 0 0 Z M2 2 C2.33 2.66 2.66 3.32 3 4 C3.33 3.34 3.66 2.68 4 2 C3.34 2 2.68 2 2 2 Z M2 5 C2 5.99 2 6.98 2 8 C2.66 8 3.32 8 4 8 C3.67 7.01 3.34 6.02 3 5 C2.67 5 2.34 5 2 5 Z " fill="#424242" transform="translate(6,74)"/>
<path d="M0 0 C1.65 0 3.3 0 5 0 C5.33 0.99 5.66 1.98 6 3 C4.68 3 3.36 3 2 3 C3.32 3.66 4.64 4.32 6 5 C5.67 6.32 5.34 7.64 5 9 C3.68 9.33 2.36 9.66 1 10 C0.34 8.68 -0.32 7.36 -1 6 C-0.01 6 0.98 6 2 6 C1.01 5.34 0.02 4.68 -1 4 C-0.67 2.68 -0.34 1.36 0 0 Z " fill="#339F40" transform="translate(279,123)"/>
<path d="M0 0 C1.2065625 0.0309375 1.2065625 0.0309375 2.4375 0.0625 C3.125 3.375 3.125 3.375 3.4375 7.0625 C2 9 2 9 0.4375 10.0625 C-0.8825 9.4025 -2.2025 8.7425 -3.5625 8.0625 C-3.60491723 5.72955225 -3.60342937 3.39547433 -3.5625 1.0625 C-2.5625 0.0625 -2.5625 0.0625 0 0 Z M-1.5625 2.0625 C-1.5625 3.7125 -1.5625 5.3625 -1.5625 7.0625 C-0.5725 7.0625 0.4175 7.0625 1.4375 7.0625 C1.1075 5.4125 0.7775 3.7625 0.4375 2.0625 C-0.2225 2.0625 -0.8825 2.0625 -1.5625 2.0625 Z " fill="#414141" transform="translate(16.5625,97.9375)"/>
<path d="M0 0 C1.67542976 0.28604898 3.34385343 0.61781233 5 1 C5.6875 3.8125 5.6875 3.8125 6 7 C4.5625 8.875 4.5625 8.875 3 10 C1.68 9.34 0.36 8.68 -1 8 C-1.04241723 5.66705225 -1.04092937 3.33297433 -1 1 C-0.67 0.67 -0.34 0.34 0 0 Z M1 2 C1 3.65 1 5.3 1 7 C1.99 7.495 1.99 7.495 3 8 C3.33 6.35 3.66 4.7 4 3 C3.01 2.67 2.02 2.34 1 2 Z " fill="#414141" transform="translate(14,74)"/>
<path d="M0 0 C1.65 0 3.3 0 5 0 C6.35439668 2.70879335 6.06501451 5.00933268 6 8 C4.02 8.99 4.02 8.99 2 10 C1.01 9.34 0.02 8.68 -1 8 C-1.25660094 4.92078868 -1.39431504 2.78863007 0 0 Z M1 2 C1 3.65 1 5.3 1 7 C1.99 7 2.98 7 4 7 C4 5.35 4 3.7 4 2 C3.01 2 2.02 2 1 2 Z " fill="#424242" transform="translate(10,122)"/>
<path d="M0 0 C1.65 0.33 3.3 0.66 5 1 C5 3.31 5 5.62 5 8 C3.125 9.0625 3.125 9.0625 1 10 C0.34 9.67 -0.32 9.34 -1 9 C-1.75 6.125 -1.75 6.125 -2 3 C-1.34 2.01 -0.68 1.02 0 0 Z M1 2 C0.3185177 3.89179203 0.3185177 3.89179203 0 6 C0.66 6.66 1.32 7.32 2 8 C3.29633621 6.93354885 3.29633621 6.93354885 3.0625 4.4375 C3.041875 3.633125 3.02125 2.82875 3 2 C2.34 2 1.68 2 1 2 Z " fill="#424242" transform="translate(17,49)"/>
<path d="M0 0 C1.65 0.33 3.3 0.66 5 1 C5.625 2.8125 5.625 2.8125 6 5 C5.01 6.485 5.01 6.485 4 8 C1.525 7.01 1.525 7.01 -1 6 C-0.67 4.02 -0.34 2.04 0 0 Z " fill="#414141" transform="translate(96,125)"/>
<path d="M0 0 C1.67542976 0.28604898 3.34385343 0.61781233 5 1 C5.98120464 4.05263664 5.98120464 5.94736336 5 9 C3.125 9.625 3.125 9.625 1 10 C-1 8 -1 8 -1.1875 4.4375 C-1 1 -1 1 0 0 Z M1 2 C-0.33333333 5 -0.33333333 5 1 8 C1.66 8 2.32 8 3 8 C4.01111093 4.95086772 4.01111093 4.95086772 3 2 C2.34 2 1.68 2 1 2 Z " fill="#424242" transform="translate(17,24)"/>
<path d="M0 0 C0.66 0 1.32 0 2 0 C2.33 2.64 2.66 5.28 3 8 C-0.13349732 9.04449911 -0.98968256 8.93423645 -4 8 C-2.25 2.25 -2.25 2.25 0 0 Z M-1 4 C0 6 0 6 0 6 Z " fill="#424242" transform="translate(9,98)"/>
<path d="M0 0 C2.31 0 4.62 0 7 0 C6.67 0.66 6.34 1.32 6 2 C4.68 2 3.36 2 2 2 C2 2.66 2 3.32 2 4 C3.32 4 4.64 4 6 4 C6 4.66 6 5.32 6 6 C4.68 6 3.36 6 2 6 C2 6.99 2 7.98 2 9 C1.34 9 0.68 9 0 9 C0 6.03 0 3.06 0 0 Z " fill="#414141" transform="translate(202,123)"/>
<path d="M0 0 C0.66 0 1.32 0 2 0 C2 0.66 2 1.32 2 2 C3.32 2.33 4.64 2.66 6 3 C6 4.98 6 6.96 6 9 C5.34 9 4.68 9 4 9 C4 7.35 4 5.7 4 4 C3.34 4 2.68 4 2 4 C2 5.65 2 7.3 2 9 C1.34 9 0.68 9 0 9 C0 6.03 0 3.06 0 0 Z " fill="#424242" transform="translate(168,123)"/>
<path d="M0 0 C0.33 0 0.66 0 1 0 C1 2.97 1 5.94 1 9 C-0.32 9.33 -1.64 9.66 -3 10 C-5 8 -5 8 -5.125 5.375 C-5.08375 4.59125 -5.0425 3.8075 -5 3 C-3.35 2.67 -1.7 2.34 0 2 C0 1.34 0 0.68 0 0 Z M-3 4 C-3 5.32 -3 6.64 -3 8 C-2.01 7.67 -1.02 7.34 0 7 C-0.33 6.01 -0.66 5.02 -1 4 C-1.66 4 -2.32 4 -3 4 Z " fill="#424242" transform="translate(142,123)"/>
<path d="M0 0 C1.65 0.33 3.3 0.66 5 1 C4.125 5.875 4.125 5.875 3 7 C3.66 7.66 4.32 8.32 5 9 C3.02 9 1.04 9 -1 9 C0.20381448 6.50638429 1.45428722 4.31856917 3 2 C1.68 2.33 0.36 2.66 -1 3 C-0.67 2.01 -0.34 1.02 0 0 Z " fill="#414141" transform="translate(3,0)"/>
<path d="M0 0 C0.66 0 1.32 0 2 0 C2.33 1.65 2.66 3.3 3 5 C3.33 3.35 3.66 1.7 4 0 C4.66 0 5.32 0 6 0 C6 2.31 6 4.62 6 7 C2.25 8.125 2.25 8.125 0 7 C0 4.69 0 2.38 0 0 Z " fill="#339F40" transform="translate(286,125)"/>
<path d="M0 0 C0.66 0 1.32 0 2 0 C2.33 1.65 2.66 3.3 3 5 C3.33 3.35 3.66 1.7 4 0 C4.66 0 5.32 0 6 0 C6 2.31 6 4.62 6 7 C2.25 8.125 2.25 8.125 0 7 C0 4.69 0 2.38 0 0 Z " fill="#424242" transform="translate(175,125)"/>
<path d="M0 0 C1.66611905 -0.042721 3.33382885 -0.04063832 5 0 C6 1 6 1 6.0625 4.0625 C6.041875 5.031875 6.02125 6.00125 6 7 C5.34 7 4.68 7 4 7 C4 5.35 4 3.7 4 2 C3.34 2 2.68 2 2 2 C2 3.65 2 5.3 2 7 C1.34 7 0.68 7 0 7 C0 4.69 0 2.38 0 0 Z " fill="#339F40" transform="translate(293,125)"/>
<path d="M0 0 C1.66611905 -0.042721 3.33382885 -0.04063832 5 0 C6 1 6 1 6.0625 4.0625 C6.041875 5.031875 6.02125 6.00125 6 7 C5.34 7 4.68 7 4 7 C4 5.35 4 3.7 4 2 C3.34 2 2.68 2 2 2 C2 3.65 2 5.3 2 7 C1.34 7 0.68 7 0 7 C0 4.69 0 2.38 0 0 Z " fill="#414141" transform="translate(58,125)"/>
<path d="M0 0 C1.65 0 3.3 0 5 0 C5.33 0.99 5.66 1.98 6 3 C4.5625 5.1875 4.5625 5.1875 3 7 C3.99 7.66 4.98 8.32 6 9 C3.69 9 1.38 9 -1 9 C0.32 7.02 1.64 5.04 3 3 C1.68 2.67 0.36 2.34 -1 2 C-0.67 1.34 -0.34 0.68 0 0 Z " fill="#424242" transform="translate(9,49)"/>
<path d="M0 0 C0.99 0 1.98 0 3 0 C3 2.97 3 5.94 3 9 C2.34 9 1.68 9 1 9 C0.45627049 5.94152152 0 3.11227195 0 0 Z " fill="#414141" transform="translate(4,49)"/>
<path d="M0 0 C0.99 0 1.98 0 3 0 C3 2.97 3 5.94 3 9 C2.34 9 1.68 9 1 9 C0.45627049 5.94152152 0 3.11227195 0 0 Z " fill="#424242" transform="translate(4,24)"/>
<path d="M0 0 C2.31 0 4.62 0 7 0 C7 0.66 7 1.32 7 2 C6.01 2 5.02 2 4 2 C4 4.31 4 6.62 4 9 C3.67 9 3.34 9 3 9 C3 6.69 3 4.38 3 2 C2.01 2 1.02 2 0 2 C0 1.34 0 0.68 0 0 Z " fill="#424242" transform="translate(160,123)"/>
<path d="M0 0 C1.32 0 2.64 0 4 0 C4 0.66 4 1.32 4 2 C3.34 2 2.68 2 2 2 C2 3.65 2 5.3 2 7 C1.34 7 0.68 7 0 7 C0 4.69 0 2.38 0 0 Z " fill="#424242" transform="translate(209,125)"/>
<path d="M0 0 C0.66 0 1.32 0 2 0 C2 2.97 2 5.94 2 9 C1.34 9 0.68 9 0 9 C0 6.03 0 3.06 0 0 Z " fill="#414141" transform="translate(214,123)"/>
</svg>
