<?xml version="1.0" encoding="UTF-8"?>
<svg version="1.1" xmlns="http://www.w3.org/2000/svg" width="24" height="36">
<path d="M0 0 C0.9583374 0.00523682 1.9166748 0.01047363 2.90405273 0.01586914 C4.45576172 0.02070312 4.45576172 0.02070312 6.03881836 0.02563477 C7.12743164 0.03401367 8.21604492 0.04239258 9.33764648 0.05102539 C10.97636719 0.05779297 10.97636719 0.05779297 12.64819336 0.06469727 C15.35723144 0.07652713 18.06616248 0.09300996 20.77514648 0.11352539 C21.00605658 11.91559696 20.90350298 23.46193873 18.77514648 35.11352539 C17.77514648 36.11352539 17.77514648 36.11352539 16.00927734 36.22705078 C15.2604126 36.22181396 14.51154785 36.21657715 13.73999023 36.21118164 C12.93110352 36.20795898 12.1222168 36.20473633 11.28881836 36.20141602 C10.43868164 36.19303711 9.58854492 36.1846582 8.71264648 36.17602539 C7.85864258 36.17151367 7.00463867 36.16700195 6.12475586 36.16235352 C4.00818985 36.15052912 1.89165963 36.13259308 -0.22485352 36.11352539 C-3.09414299 24.6363675 -3.79787433 12.9278664 -3.22485352 1.11352539 C-2.22485352 0.11352539 -2.22485352 0.11352539 0 0 Z " fill="#E3E3E3" transform="translate(3.224853515625,-0.113525390625)"/>
<path d="M0 0 C5.28 0 10.56 0 16 0 C15.85919445 2.77117304 15.71256882 5.54182641 15.5625 8.3125 C15.52318359 9.09818359 15.48386719 9.88386719 15.44335938 10.69335938 C15.40146484 11.45068359 15.35957031 12.20800781 15.31640625 12.98828125 C15.26141968 14.03302612 15.26141968 14.03302612 15.20532227 15.09887695 C15 17 15 17 14 20 C10.04 20 6.08 20 2 20 C0.42804224 13.1226848 -0.20146331 7.05121598 0 0 Z " fill="#B8B8B8" transform="translate(4,13)"/>
<path d="M0 0 C0.99 0 1.98 0 3 0 C3.23209701 11.86273607 2.81242503 23.26778439 1 35 C-0.485 35.495 -0.485 35.495 -2 36 C-3.50875941 29.96496237 -2.64186094 24.10261631 -2 18 C-1.67 18 -1.34 18 -1 18 C-0.04380267 14.00204108 0.1039592 10.29196078 0.0625 6.1875 C0.05347656 5.02605469 0.04445313 3.86460937 0.03515625 2.66796875 C0.02355469 1.78753906 0.01195312 0.90710937 0 0 Z " fill="#D1D1D1" transform="translate(21,0)"/>
</svg>
