<?xml version="1.0" encoding="UTF-8"?>
<svg version="1.1" xmlns="http://www.w3.org/2000/svg" width="24" height="36">
<path d="M0 0 C0.98484375 -0.00128906 1.9696875 -0.00257812 2.984375 -0.00390625 C4.02078125 -0.00003906 5.0571875 0.00382812 6.125 0.0078125 C7.67960938 0.00201172 7.67960938 0.00201172 9.265625 -0.00390625 C10.25046875 -0.00261719 11.2353125 -0.00132813 12.25 0 C13.16007812 0.00112793 14.07015625 0.00225586 15.0078125 0.00341797 C17.125 0.1328125 17.125 0.1328125 18.125 1.1328125 C18.25644883 3.48054977 18.31497601 5.78390136 18.3125 8.1328125 C18.31237915 9.18976318 18.31237915 9.18976318 18.31225586 10.26806641 C18.10393315 30.17494621 18.10393315 30.17494621 15.125 36.1328125 C9.185 36.1328125 3.245 36.1328125 -2.875 36.1328125 C-5.76959535 24.5544311 -6.40978092 13.03955244 -5.875 1.1328125 C-4.22105883 -0.52112867 -2.27184587 0.00281567 0 0 Z " fill="#C9EDFC" transform="translate(5.875,-0.1328125)"/>
<path d="M0 0 C5.28 0 10.56 0 16 0 C15.855625 2.5575 15.71125 5.115 15.5625 7.75 C15.51939697 8.54889648 15.47629395 9.34779297 15.43188477 10.17089844 C15.22698513 13.61043982 14.83932418 16.64270328 14 20 C10.04 20 6.08 20 2 20 C1.66361334 17.41703099 1.3307835 14.83368737 1 12.25 C0.90460937 11.52039062 0.80921875 10.79078125 0.7109375 10.0390625 C0.27978452 6.65143196 0 3.42145141 0 0 Z " fill="#76CEF9" transform="translate(4,13)"/>
<path d="M0 0 C0.99 0.33 1.98 0.66 3 1 C3.20668939 9.53167886 3.07641497 17.89191146 2.0625 26.375 C1.97564941 27.10581787 1.88879883 27.83663574 1.79931641 28.58959961 C1.1414232 33.7171536 1.1414232 33.7171536 0 36 C-0.99 35.67 -1.98 35.34 -3 35 C-2.85973717 32.68715544 -2.71264442 30.37472409 -2.5625 28.0625 C-2.48128906 26.77472656 -2.40007813 25.48695312 -2.31640625 24.16015625 C-2 21 -2 21 -1 20 C0.13298734 13.32796347 0.10130722 6.75381462 0 0 Z " fill="#ADE2FA" transform="translate(21,0)"/>
</svg>
